<svg width="284" height="157" viewBox="0 0 284 157" fill="none" xmlns="http://www.w3.org/2000/svg">
<path d="M16.7561 0.172729H34.0814V157.009H16.7561C11.1556 157.009 8.35532 157.009 6.2162 155.919C4.33458 154.961 2.80477 153.431 1.84604 151.549C0.756104 149.41 0.756104 146.61 0.756104 141.009V103.939C14.7556 103.939 26.1044 92.5905 26.1044 78.5911C26.1044 64.5916 14.7556 53.2428 0.756104 53.2428V16.1727C0.756104 10.5722 0.756104 7.77194 1.84604 5.63282C2.80477 3.7512 4.33458 2.2214 6.2162 1.26266C8.35532 0.172729 11.1556 0.172729 16.7561 0.172729Z" fill="#D9D9D9"/>
<rect x="34.0814" y="0.172729" width="216.349" height="156.837" fill="#D9D9D9"/>
<path d="M267.756 0.172729H250.431V157.009H267.756C273.357 157.009 276.157 157.009 278.296 155.919C280.178 154.961 281.707 153.431 282.666 151.549C283.756 149.41 283.756 146.61 283.756 141.009V103.939C269.757 103.939 258.408 92.5905 258.408 78.5911C258.408 64.5916 269.757 53.2428 283.756 53.2428V16.1727C283.756 10.5722 283.756 7.77194 282.666 5.63282C281.707 3.7512 280.178 2.2214 278.296 1.26266C276.157 0.172729 273.357 0.172729 267.756 0.172729Z" fill="#D9D9D9"/>
</svg>
