<svg width="19" height="30" viewBox="0 0 19 30" fill="none" xmlns="http://www.w3.org/2000/svg">
<path d="M13.2637 27.8706L13.253 27.86L2.48906 16.993L2.48901 16.9931L2.48105 16.9849C1.95095 16.4373 1.64721 15.7772 1.64721 15.0045H1.64716L1.64727 14.9944C1.65481 14.2482 1.93007 13.5502 2.49954 13.0054L13.2595 2.14483C13.7415 1.64595 14.3735 1.3634 15.099 1.3634C16.589 1.3634 17.7017 2.57976 17.7017 4.02287C17.7017 4.73064 17.4174 5.40218 16.9465 5.9027C16.9402 5.90936 16.9339 5.91594 16.9274 5.92242L7.90946 14.995L16.9282 24.0874C16.9344 24.0936 16.9405 24.1 16.9466 24.1064C17.4122 24.6014 17.7017 25.2629 17.7017 25.9888C17.7017 27.4377 16.5809 28.6365 15.099 28.6365C14.3632 28.6365 13.7455 28.3425 13.2637 27.8706Z" fill="url(#paint0_linear_113_1753)" stroke="url(#paint1_linear_113_1753)" stroke-width="2" stroke-linejoin="round"/>
<defs>
<linearGradient id="paint0_linear_113_1753" x1="9.29091" y1="3.56237" x2="-1.90934" y2="23.8226" gradientUnits="userSpaceOnUse">
<stop stop-color="#BFADB9"/>
<stop offset="0.604224" stop-color="white"/>
<stop offset="1" stop-color="#BFADB9"/>
</linearGradient>
<linearGradient id="paint1_linear_113_1753" x1="9.81517" y1="2.3634" x2="5.28982" y2="26.8028" gradientUnits="userSpaceOnUse">
<stop stop-color="#3D2334"/>
<stop offset="1" stop-color="#382130"/>
</linearGradient>
</defs>
</svg>
