<svg width="28" height="28" viewBox="0 0 28 28" fill="none" xmlns="http://www.w3.org/2000/svg">
<path d="M13.9999 26.8653C17.6652 26.8653 20.6581 21.4464 20.6581 14.1816C20.6581 6.87733 17.6784 1.45845 13.9999 1.45845C10.3214 1.45845 7.34161 6.87733 7.34161 14.1816C7.34161 21.4464 10.3345 26.8653 13.9999 26.8653ZM13.9999 3.05379C16.584 3.05379 18.8914 8.19584 18.8914 14.1816C18.8914 20.062 16.584 25.2567 13.9999 25.2567C11.4157 25.2567 9.10836 20.062 9.10836 14.1816C9.10836 8.19584 11.4157 3.05379 13.9999 3.05379ZM13.1428 1.64303V26.6147H14.87V1.64303H13.1428ZM13.9999 19.1127C9.93895 19.1127 6.33957 20.1807 4.49372 21.8815L5.82537 22.9758C7.56573 21.5914 10.4004 20.8399 13.9999 20.8399C17.5993 20.8399 20.4339 21.5914 22.1743 22.9758L23.506 21.8815C21.6601 20.1807 18.0607 19.1127 13.9999 19.1127ZM26.1693 13.2851H1.83042V15.0123H26.1693V13.2851ZM13.9999 9.26377C18.0607 9.26377 21.6601 8.19584 23.506 6.49498L22.1743 5.40065C20.4339 6.77186 17.5993 7.53658 13.9999 7.53658C10.4004 7.53658 7.56573 6.77186 5.82537 5.40065L4.49372 6.49498C6.33957 8.19584 9.93895 9.26377 13.9999 9.26377ZM13.9999 27.6036C21.4228 27.6036 27.4482 21.5782 27.4482 14.1553C27.4482 6.73231 21.4228 0.706924 13.9999 0.706924C6.57689 0.706924 0.551514 6.73231 0.551514 14.1553C0.551514 21.5782 6.57689 27.6036 13.9999 27.6036ZM13.9999 25.8105C7.56573 25.8105 2.34463 20.5893 2.34463 14.1553C2.34463 7.72114 7.56573 2.50004 13.9999 2.50004C20.4339 2.50004 25.6551 7.72114 25.6551 14.1553C25.6551 20.5893 20.4339 25.8105 13.9999 25.8105Z" fill="#563A4A"/>
<path d="M13.9999 26.8653C17.6652 26.8653 20.6581 21.4464 20.6581 14.1816C20.6581 6.87733 17.6784 1.45845 13.9999 1.45845C10.3214 1.45845 7.34161 6.87733 7.34161 14.1816C7.34161 21.4464 10.3345 26.8653 13.9999 26.8653ZM13.9999 3.05379C16.584 3.05379 18.8914 8.19584 18.8914 14.1816C18.8914 20.062 16.584 25.2567 13.9999 25.2567C11.4157 25.2567 9.10836 20.062 9.10836 14.1816C9.10836 8.19584 11.4157 3.05379 13.9999 3.05379ZM13.1428 1.64303V26.6147H14.87V1.64303H13.1428ZM13.9999 19.1127C9.93895 19.1127 6.33957 20.1807 4.49372 21.8815L5.82537 22.9758C7.56573 21.5914 10.4004 20.8399 13.9999 20.8399C17.5993 20.8399 20.4339 21.5914 22.1743 22.9758L23.506 21.8815C21.6601 20.1807 18.0607 19.1127 13.9999 19.1127ZM26.1693 13.2851H1.83042V15.0123H26.1693V13.2851ZM13.9999 9.26377C18.0607 9.26377 21.6601 8.19584 23.506 6.49498L22.1743 5.40065C20.4339 6.77186 17.5993 7.53658 13.9999 7.53658C10.4004 7.53658 7.56573 6.77186 5.82537 5.40065L4.49372 6.49498C6.33957 8.19584 9.93895 9.26377 13.9999 9.26377ZM13.9999 27.6036C21.4228 27.6036 27.4482 21.5782 27.4482 14.1553C27.4482 6.73231 21.4228 0.706924 13.9999 0.706924C6.57689 0.706924 0.551514 6.73231 0.551514 14.1553C0.551514 21.5782 6.57689 27.6036 13.9999 27.6036ZM13.9999 25.8105C7.56573 25.8105 2.34463 20.5893 2.34463 14.1553C2.34463 7.72114 7.56573 2.50004 13.9999 2.50004C20.4339 2.50004 25.6551 7.72114 25.6551 14.1553C25.6551 20.5893 20.4339 25.8105 13.9999 25.8105Z" fill="url(#paint0_linear_4014_1625)"/>
<path d="M13.9999 26.8653C17.6652 26.8653 20.6581 21.4464 20.6581 14.1816C20.6581 6.87733 17.6784 1.45845 13.9999 1.45845C10.3214 1.45845 7.34161 6.87733 7.34161 14.1816C7.34161 21.4464 10.3345 26.8653 13.9999 26.8653ZM13.9999 3.05379C16.584 3.05379 18.8914 8.19584 18.8914 14.1816C18.8914 20.062 16.584 25.2567 13.9999 25.2567C11.4157 25.2567 9.10836 20.062 9.10836 14.1816C9.10836 8.19584 11.4157 3.05379 13.9999 3.05379ZM13.1428 1.64303V26.6147H14.87V1.64303H13.1428ZM13.9999 19.1127C9.93895 19.1127 6.33957 20.1807 4.49372 21.8815L5.82537 22.9758C7.56573 21.5914 10.4004 20.8399 13.9999 20.8399C17.5993 20.8399 20.4339 21.5914 22.1743 22.9758L23.506 21.8815C21.6601 20.1807 18.0607 19.1127 13.9999 19.1127ZM26.1693 13.2851H1.83042V15.0123H26.1693V13.2851ZM13.9999 9.26377C18.0607 9.26377 21.6601 8.19584 23.506 6.49498L22.1743 5.40065C20.4339 6.77186 17.5993 7.53658 13.9999 7.53658C10.4004 7.53658 7.56573 6.77186 5.82537 5.40065L4.49372 6.49498C6.33957 8.19584 9.93895 9.26377 13.9999 9.26377ZM13.9999 27.6036C21.4228 27.6036 27.4482 21.5782 27.4482 14.1553C27.4482 6.73231 21.4228 0.706924 13.9999 0.706924C6.57689 0.706924 0.551514 6.73231 0.551514 14.1553C0.551514 21.5782 6.57689 27.6036 13.9999 27.6036ZM13.9999 25.8105C7.56573 25.8105 2.34463 20.5893 2.34463 14.1553C2.34463 7.72114 7.56573 2.50004 13.9999 2.50004C20.4339 2.50004 25.6551 7.72114 25.6551 14.1553C25.6551 20.5893 20.4339 25.8105 13.9999 25.8105Z" fill="url(#paint1_linear_4014_1625)"/>
<defs>
<linearGradient id="paint0_linear_4014_1625" x1="14.7338" y1="1.98291" x2="22.6409" y2="27.7034" gradientUnits="userSpaceOnUse">
<stop stop-color="#BFADB9"/>
<stop offset="0.604224" stop-color="white"/>
<stop offset="1" stop-color="#BFADB9"/>
</linearGradient>
<linearGradient id="paint1_linear_4014_1625" x1="13.9999" y1="0.706924" x2="13.9999" y2="27.6036" gradientUnits="userSpaceOnUse">
<stop stop-color="#F1C4E2"/>
<stop offset="1" stop-color="#AF809F"/>
</linearGradient>
</defs>
</svg>
