<svg width="1824" height="83" viewBox="0 0 1824 83" fill="none" xmlns="http://www.w3.org/2000/svg">
<mask id="path-1-inside-1_4002_1367" fill="white">
<path d="M0 0H1824V38.2C1824 53.8815 1824 61.7222 1820.95 67.7117C1818.26 72.9803 1813.98 77.2637 1808.71 79.9482C1802.72 83 1794.88 83 1779.2 83H46.4C30.1585 83 22.0377 83 15.8343 79.8392C10.3776 77.0589 5.94114 72.6224 3.16081 67.1657C0 60.9623 0 52.8415 0 36.6V0Z"/>
</mask>
<path d="M0 0H1824H0ZM1826 55C1826 71.5685 1812.57 85 1796 85H29C11.8792 85 -2 71.1208 -2 54H2C2 68.9117 14.0883 81 29 81H1796C1810.36 81 1822 69.3594 1822 55H1826ZM29 85C11.8792 85 -2 71.1208 -2 54V0H2V54C2 68.9117 14.0883 81 29 81V85ZM1826 0V55C1826 71.5685 1812.57 85 1796 85V81C1810.36 81 1822 69.3594 1822 55V0H1826Z" fill="url(#paint0_linear_4002_1367)" mask="url(#path-1-inside-1_4002_1367)"/>
<defs>
<linearGradient id="paint0_linear_4002_1367" x1="912" y1="0" x2="912" y2="83" gradientUnits="userSpaceOnUse">
<stop stop-color="#331E2B"/>
<stop offset="1" stop-color="#634357"/>
</linearGradient>
</defs>
</svg>
