<svg width="22" height="24" viewBox="0 0 22 24" fill="none" xmlns="http://www.w3.org/2000/svg">
<path d="M2.50032 23.4637H18.9222C20.4492 23.4637 21.3567 22.7252 21.3567 21.4985C21.3567 18.2943 17.2011 13.9135 10.705 13.9135C4.22137 13.9135 0.0595703 18.2943 0.0595703 21.4985C0.0595703 22.7252 0.973287 23.4637 2.50032 23.4637ZM10.7113 11.723C13.5275 11.723 15.8368 9.25726 15.8368 6.10929C15.8368 3.06148 13.5087 0.620728 10.7113 0.620728C7.91381 0.620728 5.59194 3.08652 5.59194 6.12807C5.59194 9.25726 7.89504 11.723 10.7113 11.723Z" fill="#220F1C"/>
<path d="M2.50032 23.4637H18.9222C20.4492 23.4637 21.3567 22.7252 21.3567 21.4985C21.3567 18.2943 17.2011 13.9135 10.705 13.9135C4.22137 13.9135 0.0595703 18.2943 0.0595703 21.4985C0.0595703 22.7252 0.973287 23.4637 2.50032 23.4637ZM10.7113 11.723C13.5275 11.723 15.8368 9.25726 15.8368 6.10929C15.8368 3.06148 13.5087 0.620728 10.7113 0.620728C7.91381 0.620728 5.59194 3.08652 5.59194 6.12807C5.59194 9.25726 7.89504 11.723 10.7113 11.723Z" fill="url(#paint0_linear_113_1525)"/>
<defs>
<linearGradient id="paint0_linear_113_1525" x1="10.7081" y1="0.620728" x2="10.7081" y2="23.4637" gradientUnits="userSpaceOnUse">
<stop stop-color="#F1C4E2"/>
<stop offset="1" stop-color="#AF809F"/>
</linearGradient>
</defs>
</svg>
