<svg width="550" height="40" viewBox="0 0 550 40" fill="none" xmlns="http://www.w3.org/2000/svg">
<path d="M366.672 33.2763C366.672 33.8286 367.12 34.2763 367.672 34.2763H384.42C388.677 34.2763 392.073 33.5262 394.467 31.886L394.47 31.8843C396.93 30.1884 398.181 27.7812 398.181 24.7693C398.181 22.7959 397.678 21.0608 396.62 19.6225C395.834 18.4991 394.801 17.6023 393.545 16.9248C394.188 16.405 394.744 15.8155 395.207 15.154C396.192 13.7616 396.675 12.1539 396.675 10.3693C396.675 7.61975 395.511 5.3764 393.258 3.71784C390.998 2.02484 387.7 1.26099 383.534 1.26099H367.672C367.12 1.26099 366.672 1.7087 366.672 2.26099V33.2763ZM382.382 13.5785H377.356V9.59697H382.382C383.777 9.59697 384.647 9.83977 385.143 10.1771C385.151 10.1824 385.158 10.1875 385.166 10.1925C385.572 10.4519 385.813 10.844 385.813 11.5656C385.813 12.287 385.57 12.7079 385.143 12.9983C384.647 13.3357 383.777 13.5785 382.382 13.5785ZM377.356 25.9403V21.6486H383.711C385.129 21.6486 386.027 21.9038 386.554 22.2684C386.566 22.2766 386.578 22.2847 386.59 22.2924C387.056 22.5853 387.319 23.0225 387.319 23.7945C387.319 24.5646 387.055 25.0291 386.572 25.3526C386.04 25.6987 385.133 25.9403 383.711 25.9403H377.356Z" stroke="#FBCFEC" stroke-opacity="0.6" stroke-width="2" stroke-linejoin="round"/>
<path d="M407.823 30.0672L407.809 30.0537C406.178 28.4862 404.907 26.6648 403.997 24.5955C403.08 22.5074 402.628 20.2272 402.628 17.7686C402.628 15.3099 403.08 13.0298 403.997 10.9417L404.878 11.3285L403.997 10.9417C404.907 8.87068 406.181 7.06136 407.816 5.52122L407.823 30.0672ZM407.823 30.0672C409.487 31.6059 411.43 32.7943 413.64 33.635C415.863 34.48 418.274 34.8966 420.864 34.8966M407.823 30.0672L420.864 34.8966M420.864 34.8966C423.48 34.8966 425.893 34.4808 428.089 33.634C430.3 32.7929 432.23 31.603 433.867 30.0607C435.501 28.5212 436.774 26.7129 437.684 24.643C438.631 22.5267 439.099 20.2309 439.099 17.7686C439.099 15.3076 438.632 13.0252 437.683 10.936C436.774 8.86876 435.502 7.06239 433.871 5.52433C432.234 3.95145 430.303 2.74524 428.089 1.90309C425.893 1.05635 423.48 0.640625 420.864 0.640625C418.274 0.640625 415.863 1.05719 413.64 1.90223C411.426 2.74438 409.481 3.95012 407.816 5.52083L420.864 34.8966ZM423.771 25.0813L423.771 25.0813L423.762 25.0851C422.888 25.4447 421.926 25.6301 420.864 25.6301C419.803 25.6301 418.824 25.4454 417.917 25.0832C417.042 24.7225 416.273 24.2108 415.603 23.544C414.962 22.8479 414.439 22.0161 414.041 21.037C413.678 20.0743 413.489 18.9888 413.489 17.7686C413.489 16.5136 413.68 15.431 414.039 14.5044C414.439 13.5199 414.963 12.7027 415.603 12.0373C416.275 11.3389 417.045 10.8137 417.917 10.454C418.824 10.0918 419.803 9.90707 420.864 9.90707C421.926 9.90707 422.888 10.0925 423.762 10.4521L423.762 10.4521L423.771 10.4559C424.671 10.8157 425.432 11.3375 426.067 12.0234C426.076 12.0328 426.085 12.042 426.094 12.0511C426.754 12.7114 427.271 13.5187 427.638 14.4893C427.642 14.4996 427.646 14.5098 427.65 14.52C428.034 15.4417 428.238 16.5185 428.238 17.7686C428.238 18.9853 428.035 20.0668 427.646 21.0261L427.638 21.0479C427.27 22.0213 426.749 22.8492 426.08 23.5439L426.08 23.5444C425.444 24.2054 424.679 24.7181 423.771 25.0813Z" stroke="#FBCFEC" stroke-opacity="0.6" stroke-width="2" stroke-linejoin="round"/>
<path d="M448.955 30.0672L448.941 30.0537C447.311 28.4862 446.039 26.6648 445.13 24.5955C444.212 22.5074 443.76 20.2272 443.76 17.7686C443.76 15.3099 444.212 13.0298 445.13 10.9417L446.01 11.3285L445.13 10.9417C446.04 8.87068 447.314 7.06136 448.948 5.52122L448.955 30.0672ZM448.955 30.0672C450.62 31.6059 452.563 32.7943 454.773 33.635C456.995 34.48 459.406 34.8966 461.996 34.8966M448.955 30.0672L461.996 34.8966M461.996 34.8966C464.613 34.8966 467.026 34.4808 469.222 33.634C471.433 32.7929 473.363 31.603 474.999 30.0607C476.633 28.5212 477.907 26.7129 478.817 24.643C479.764 22.5267 480.232 20.2309 480.232 17.7686C480.232 15.3076 479.764 13.0252 478.816 10.936C477.906 8.86876 476.634 7.06239 475.003 5.52433C473.366 3.95145 471.435 2.74524 469.222 1.90309C467.025 1.05635 464.613 0.640625 461.996 0.640625C459.406 0.640625 456.995 1.05719 454.773 1.90223C452.559 2.74438 450.614 3.95012 448.949 5.52083L461.996 34.8966ZM464.904 25.0813L464.904 25.0813L464.894 25.0851C464.021 25.4447 463.059 25.6301 461.996 25.6301C460.936 25.6301 459.957 25.4454 459.049 25.0832C458.175 24.7225 457.406 24.2108 456.735 23.544C456.094 22.8479 455.572 22.0161 455.173 21.037C454.811 20.0743 454.622 18.9888 454.622 17.7686C454.622 16.5136 454.813 15.431 455.172 14.5044C455.572 13.5199 456.096 12.7027 456.735 12.0373C457.408 11.3389 458.177 10.8137 459.049 10.454C459.957 10.0918 460.936 9.90707 461.996 9.90707C463.059 9.90707 464.021 10.0925 464.894 10.4521L464.894 10.4521L464.904 10.4559C465.803 10.8157 466.564 11.3375 467.2 12.0234C467.208 12.0328 467.217 12.042 467.226 12.0511C467.887 12.7114 468.403 13.5187 468.77 14.4893C468.774 14.4996 468.778 14.5098 468.783 14.52C469.167 15.4417 469.37 16.5185 469.37 17.7686C469.37 18.9853 469.168 20.0668 468.779 21.0261L468.77 21.0479C468.402 22.0213 467.882 22.8492 467.213 23.5439L467.213 23.5444C466.577 24.2054 465.812 24.7181 464.904 25.0813Z" stroke="#FBCFEC" stroke-opacity="0.6" stroke-width="2" stroke-linejoin="round"/>
<path d="M495.698 12.6061V2.26099C495.698 1.7087 495.251 1.26099 494.698 1.26099H486.014C485.462 1.26099 485.014 1.7087 485.014 2.26099V33.2763C485.014 33.8286 485.462 34.2763 486.014 34.2763H494.698C495.251 34.2763 495.698 33.8286 495.698 33.2763V25.9008L497.892 23.5505L506.054 33.8957C506.243 34.1361 506.533 34.2763 506.839 34.2763H517.029C517.411 34.2763 517.759 34.0597 517.927 33.7177C518.095 33.3757 518.054 32.9679 517.822 32.666L505.009 16.0372L517.1 2.93927C517.369 2.6474 517.44 2.22376 517.281 1.85991C517.122 1.49606 516.762 1.26099 516.365 1.26099H506.706C506.428 1.26099 506.163 1.37626 505.974 1.57923L495.698 12.6061Z" stroke="#FBCFEC" stroke-opacity="0.6" stroke-width="2" stroke-linejoin="round"/>
<path d="M526.071 33.9294L526.086 33.9333C528.535 34.5762 531.072 34.8966 533.695 34.8966C536.856 34.8966 539.549 34.4268 541.728 33.434C543.896 32.4598 545.58 31.1407 546.71 29.4463C547.851 27.7506 548.43 25.8888 548.43 23.883C548.43 22.1356 548.082 20.6023 547.317 19.3436C546.62 18.1207 545.685 17.1328 544.515 16.3957C543.401 15.665 542.168 15.0972 540.821 14.6887C539.549 14.2654 538.262 13.9172 536.959 13.6445C535.728 13.3806 534.585 13.1314 533.529 12.897C532.575 12.6504 531.842 12.3618 531.304 12.0483C530.947 11.8037 530.84 11.5578 530.84 11.2554C530.84 10.9451 530.929 10.6906 531.114 10.4554C531.269 10.2572 531.594 10.0179 532.227 9.81519C532.239 9.81155 532.25 9.8077 532.261 9.80365C532.849 9.59217 533.695 9.464 534.847 9.464C536.103 9.464 537.414 9.6551 538.781 10.0458L538.8 10.0509C540.162 10.4124 541.551 10.9719 542.967 11.7365C543.216 11.8709 543.51 11.8936 543.777 11.799C544.044 11.7043 544.258 11.5012 544.366 11.2399L547.069 4.72667C547.261 4.26282 547.08 3.72816 546.645 3.4772C545.012 2.53512 543.16 1.83772 541.1 1.37563C539.074 0.885396 537.004 0.640625 534.891 0.640625C531.755 0.640625 529.065 1.11148 526.86 2.10199C524.692 3.07613 522.996 4.39327 521.838 6.08154L521.838 6.08149L521.83 6.09269C520.713 7.76819 520.156 9.64594 520.156 11.6985C520.156 13.4796 520.505 15.0427 521.271 16.3301L521.271 16.3302L521.277 16.3405C522.003 17.5288 522.949 18.5079 524.107 19.2689L524.124 19.2798C525.23 19.9751 526.44 20.5399 527.751 20.977L527.751 20.977L527.758 20.9792C529.059 21.4028 530.348 21.7517 531.624 22.0252L531.629 22.0261C532.887 22.2895 534.024 22.552 535.041 22.8134C536.009 23.0624 536.744 23.3677 537.278 23.7076C537.67 23.9566 537.79 24.2145 537.79 24.5477C537.79 24.7874 537.715 24.991 537.524 25.1986L537.521 25.2012C537.367 25.37 537.029 25.5941 536.376 25.8049C535.762 25.9742 534.894 26.0732 533.739 26.0732C532.046 26.0732 530.331 25.8101 528.592 25.2781C526.861 24.7101 525.348 24.0064 524.042 23.173C523.797 23.0164 523.495 22.9745 523.216 23.0583C522.937 23.1421 522.709 23.3432 522.59 23.6092L519.71 30.0782C519.514 30.5202 519.662 31.0397 520.062 31.3118C521.654 32.3947 523.668 33.2601 526.071 33.9294Z" stroke="#FBCFEC" stroke-opacity="0.6" stroke-width="2" stroke-linejoin="round"/>
<path d="M1.56982 32.8442C1.56982 33.3965 2.01754 33.8442 2.56982 33.8442H19.3181C23.5748 33.8442 26.9702 33.0941 29.365 31.4538L29.3674 31.4522C31.8281 29.7563 33.0787 27.3491 33.0787 24.3371C33.0787 22.3638 32.5754 20.6286 31.5177 19.1904C30.7313 18.0669 29.6984 17.1702 28.4424 16.4927C29.0856 15.9729 29.6418 15.3834 30.1051 14.7219C31.0894 13.3295 31.5722 11.7218 31.5722 9.93715C31.5722 7.18762 30.409 4.94427 28.1555 3.28571C25.8957 1.59271 22.5981 0.828857 18.4319 0.828857H2.56982C2.01754 0.828857 1.56982 1.27657 1.56982 1.82886V32.8442ZM17.28 13.1464H12.2541V9.16485H17.28C18.6748 9.16485 19.5446 9.40764 20.0407 9.745C20.0484 9.75022 20.0561 9.75534 20.064 9.76035C20.4694 10.0198 20.7107 10.4119 20.7107 11.1335C20.7107 11.8548 20.4678 12.2758 20.0407 12.5662C19.5446 12.9036 18.6748 13.1464 17.28 13.1464ZM12.2541 25.5082V21.2165H18.6092C20.0262 21.2165 20.925 21.4716 21.4517 21.8362C21.4636 21.8445 21.4757 21.8525 21.488 21.8603C21.9532 22.1532 22.2172 22.5904 22.2172 23.3624C22.2172 24.1325 21.9529 24.597 21.4699 24.9204C20.9379 25.2666 20.0305 25.5082 18.6092 25.5082H12.2541Z" stroke="#FBCFEC" stroke-opacity="0.6" stroke-width="2" stroke-linejoin="round"/>
<path d="M39.0786 32.8442C39.0786 33.3965 39.5263 33.8442 40.0786 33.8442H63.6503C64.2025 33.8442 64.6503 33.3965 64.6503 32.8442V25.8879C64.6503 25.3356 64.2025 24.8879 63.6503 24.8879H49.8515V1.82886C49.8515 1.27657 49.4038 0.828857 48.8515 0.828857H40.0786C39.5263 0.828857 39.0786 1.27657 39.0786 1.82886V32.8442Z" stroke="#FBCFEC" stroke-opacity="0.6" stroke-width="2" stroke-linejoin="round"/>
<path d="M74.5694 29.7193L74.5623 29.7125C72.9321 28.145 71.6602 26.3236 70.751 24.2543C69.8335 22.1663 69.3816 19.8861 69.3816 17.4274C69.3816 14.9688 69.8335 12.6886 70.751 10.6005C71.661 8.52949 72.9349 6.72018 74.5692 5.18004L74.5694 29.7193ZM74.5694 29.7193L74.5766 29.726M74.5694 29.7193L74.5766 29.726M74.5766 29.726C76.241 31.2647 78.1836 32.4532 80.3941 33.2938C82.6163 34.1388 85.0274 34.5554 87.6173 34.5554M74.5766 29.726L87.6173 34.5554M87.6173 34.5554C90.234 34.5554 92.6466 34.1396 94.8428 33.2929C97.0538 32.4517 98.9838 31.2619 100.621 29.7195C102.254 28.18 103.528 26.3717 104.438 24.3018C105.385 22.1855 105.853 19.8897 105.853 17.4274C105.853 14.9664 105.385 12.684 104.437 10.5948C103.527 8.52758 102.256 6.7212 100.624 5.18315C98.9875 3.61026 97.0563 2.40405 94.8426 1.56191C92.6465 0.715161 90.234 0.299438 87.6173 0.299438C85.0274 0.299438 82.6163 0.715999 80.3941 1.56105C78.1796 2.40319 76.2347 3.60893 74.5696 5.17964L87.6173 34.5554Z" stroke="#FBCFEC" stroke-opacity="0.6" stroke-width="2"/>
<path d="M87.7858 5.02856L99.8957 17.1385M87.7858 5.02856L75.6759 17.1385M87.7858 5.02856V0M99.8957 17.1385L87.7858 29.2484M99.8957 17.1385H105.553M87.7858 29.2484L75.6759 17.1385M87.7858 29.2484V34.6731M75.6759 17.1385L69.6816 17.1385" stroke="#B095A7" stroke-width="1.5"/>
<g filter="url(#filter0_dddi_4004_1936)">
<path d="M87.6172 9.55164L92.831 17.2763L87.6172 25.0009L82.4033 17.2763L87.6172 9.55164Z" fill="#D9D9D9"/>
<path d="M87.6172 9.55164L92.831 17.2763L87.6172 25.0009L82.4033 17.2763L87.6172 9.55164Z" fill="url(#paint0_linear_4004_1936)"/>
</g>
<path d="M116.352 29.6662L116.352 29.6662L116.359 29.6728C117.994 31.2135 119.908 32.4036 122.091 33.2454L122.107 33.2515C124.324 34.0636 126.716 34.4644 129.274 34.4644C132.257 34.4644 134.955 33.9413 137.348 32.8708L137.348 32.8708L137.353 32.8683C139.762 31.7731 141.779 30.2319 143.388 28.245C143.722 27.8323 143.675 27.2305 143.282 26.8743L137.699 21.8232C137.498 21.6417 137.232 21.5492 136.962 21.5669C136.692 21.5846 136.441 21.7109 136.266 21.9171C135.335 23.0124 134.328 23.8249 133.249 24.3775L133.249 24.3774L133.24 24.3821C132.217 24.9194 131.05 25.198 129.717 25.198C128.557 25.198 127.515 25.0095 126.579 24.6457C125.645 24.2823 124.853 23.7703 124.19 23.1118C123.549 22.4157 123.027 21.5839 122.629 20.6049C122.266 19.6422 122.077 18.5566 122.077 17.3365C122.077 16.1163 122.266 15.0307 122.629 14.068C123.028 13.0854 123.552 12.2696 124.19 11.6052C124.855 10.9155 125.647 10.3898 126.579 10.0273C127.515 9.66347 128.557 9.47495 129.717 9.47495C131.05 9.47495 132.217 9.75354 133.24 10.2908L133.24 10.2908L133.249 10.2954C134.328 10.8481 135.335 11.6605 136.266 12.7558C136.441 12.962 136.692 13.0883 136.962 13.106C137.232 13.1237 137.498 13.0312 137.699 12.8497L143.282 7.79864C143.673 7.4444 143.722 6.84682 143.393 6.4339C141.783 4.41407 139.762 2.86873 137.345 1.80116C134.953 0.731325 132.256 0.208496 129.274 0.208496C126.714 0.208496 124.319 0.625107 122.099 1.46873C119.913 2.28113 117.996 3.45767 116.359 5.00008L116.359 5.00005L116.352 5.00677C114.748 6.54849 113.491 8.37203 112.584 10.4679C111.666 12.5568 111.216 14.8512 111.216 17.3365C111.216 19.823 111.667 22.1309 112.583 24.2469L112.583 24.2469L112.585 24.252C113.493 26.3189 114.75 28.1263 116.352 29.6662Z" stroke="#FBCFEC" stroke-opacity="0.6" stroke-width="2" stroke-linejoin="round"/>
<path d="M159.516 12.1739V1.82886C159.516 1.27657 159.068 0.828857 158.516 0.828857H149.832C149.28 0.828857 148.832 1.27657 148.832 1.82886V32.8442C148.832 33.3965 149.28 33.8442 149.832 33.8442H158.516C159.068 33.8442 159.516 33.3965 159.516 32.8442V25.4687L161.71 23.1184L169.871 33.4636C170.061 33.7039 170.35 33.8442 170.656 33.8442H180.847C181.228 33.8442 181.576 33.6276 181.744 33.2856C181.913 32.9436 181.872 32.5357 181.639 32.2338L168.827 15.6051L180.917 2.50714C181.187 2.21528 181.258 1.79163 181.099 1.42778C180.939 1.06393 180.58 0.828857 180.182 0.828857H170.523C170.246 0.828857 169.981 0.944127 169.792 1.1471L159.516 12.1739Z" stroke="#FBCFEC" stroke-opacity="0.6" stroke-width="2" stroke-linejoin="round"/>
<path d="M187.107 29.6662L187.107 29.6662L187.114 29.6728C188.749 31.2135 190.663 32.4036 192.845 33.2454L192.861 33.2515C195.079 34.0636 197.471 34.4644 200.028 34.4644C203.011 34.4644 205.709 33.9413 208.102 32.8708L208.102 32.8708L208.107 32.8683C210.517 31.7731 212.534 30.2319 214.142 28.245C214.476 27.8323 214.43 27.2305 214.036 26.8743L208.453 21.8232C208.252 21.6417 207.987 21.5492 207.717 21.5669C207.447 21.5846 207.196 21.7109 207.02 21.9171C206.089 23.0124 205.082 23.8249 204.003 24.3775L204.003 24.3774L203.994 24.3821C202.971 24.9194 201.804 25.198 200.471 25.198C199.311 25.198 198.269 25.0095 197.334 24.6457C196.399 24.2823 195.607 23.7703 194.945 23.1118C194.304 22.4157 193.781 21.5839 193.383 20.6049C193.02 19.6422 192.831 18.5566 192.831 17.3365C192.831 16.1163 193.02 15.0307 193.383 14.068C193.783 13.0854 194.306 12.2696 194.945 11.6052C195.609 10.9155 196.401 10.3898 197.334 10.0273C198.269 9.66347 199.311 9.47495 200.471 9.47495C201.804 9.47495 202.971 9.75354 203.994 10.2908L203.994 10.2908L204.003 10.2954C205.082 10.8481 206.089 11.6605 207.02 12.7558C207.196 12.962 207.447 13.0883 207.717 13.106C207.987 13.1237 208.252 13.0312 208.453 12.8497L214.036 7.79864C214.427 7.4444 214.476 6.84682 214.147 6.4339C212.538 4.41407 210.517 2.86873 208.1 1.80116C205.707 0.731325 203.01 0.208496 200.028 0.208496C197.468 0.208496 195.073 0.625107 192.853 1.46873C190.667 2.28113 188.751 3.45767 187.114 5.00008L187.114 5.00005L187.107 5.00677C185.502 6.54849 184.246 8.37203 183.338 10.4679C182.421 12.5568 181.97 14.8512 181.97 17.3365C181.97 19.823 182.421 22.1309 183.337 24.2469L183.337 24.2469L183.339 24.252C184.248 26.3189 185.504 28.1263 187.107 29.6662Z" stroke="#FBCFEC" stroke-opacity="0.6" stroke-width="2" stroke-linejoin="round"/>
<path d="M241.221 0.828857C240.668 0.828857 240.221 1.27657 240.221 1.82886V12.4818H230.258V1.82886C230.258 1.27657 229.81 0.828857 229.258 0.828857H220.485C219.932 0.828857 219.485 1.27657 219.485 1.82886V32.8442C219.485 33.3965 219.932 33.8442 220.485 33.8442H229.258C229.81 33.8442 230.258 33.3965 230.258 32.8442V21.7482H240.221V32.8442C240.221 33.3965 240.668 33.8442 241.221 33.8442H249.993C250.546 33.8442 250.993 33.3965 250.993 32.8442V1.82886C250.993 1.27657 250.546 0.828857 249.993 0.828857H241.221Z" stroke="#FBCFEC" stroke-opacity="0.6" stroke-width="2" stroke-linejoin="round"/>
<path d="M255.821 32.4403C255.685 32.7496 255.714 33.1069 255.899 33.3902C256.083 33.6734 256.398 33.8442 256.736 33.8442H265.686C266.095 33.8442 266.462 33.5957 266.615 33.2166L268.781 27.8183H280.581L282.747 33.2166C282.899 33.5957 283.267 33.8442 283.675 33.8442H292.803C293.141 33.8442 293.456 33.6732 293.641 33.3897C293.825 33.1061 293.854 32.7486 293.717 32.4393L279.982 1.42393C279.821 1.06215 279.463 0.828857 279.067 0.828857H270.427C270.031 0.828857 269.673 1.06266 269.513 1.42502L255.821 32.4403ZM274.681 13.1173L277.182 19.3494H272.18L274.681 13.1173Z" stroke="#FBCFEC" stroke-opacity="0.6" stroke-width="2" stroke-linejoin="round"/>
<path d="M298.546 32.8442C298.546 33.3965 298.993 33.8442 299.546 33.8442H308.319C308.871 33.8442 309.319 33.3965 309.319 32.8442V1.82886C309.319 1.27657 308.871 0.828857 308.319 0.828857H299.546C298.993 0.828857 298.546 1.27657 298.546 1.82886V32.8442Z" stroke="#FBCFEC" stroke-opacity="0.6" stroke-width="2" stroke-linejoin="round"/>
<path d="M314.062 32.8442C314.062 33.3965 314.509 33.8442 315.062 33.8442H323.657C324.21 33.8442 324.657 33.3965 324.657 32.8442V19.0905L336.578 33.4821C336.768 33.7114 337.051 33.8442 337.348 33.8442H344.571C345.123 33.8442 345.571 33.3965 345.571 32.8442V1.82886C345.571 1.27657 345.123 0.828857 344.571 0.828857H335.975C335.423 0.828857 334.975 1.27657 334.975 1.82886V15.5826L323.054 1.19095C322.864 0.961599 322.582 0.828857 322.284 0.828857H315.062C314.509 0.828857 314.062 1.27657 314.062 1.82886V32.8442Z" stroke="#FBCFEC" stroke-opacity="0.6" stroke-width="2" stroke-linejoin="round"/>
<defs>
<filter id="filter0_dddi_4004_1936" x="67.5418" y="-5.30988" width="40.1508" height="45.1722" filterUnits="userSpaceOnUse" color-interpolation-filters="sRGB">
<feFlood flood-opacity="0" result="BackgroundImageFix"/>
<feColorMatrix in="SourceAlpha" type="matrix" values="0 0 0 0 0 0 0 0 0 0 0 0 0 0 0 0 0 0 127 0" result="hardAlpha"/>
<feMorphology radius="0.272189" operator="dilate" in="SourceAlpha" result="effect1_dropShadow_4004_1936"/>
<feOffset/>
<feGaussianBlur stdDeviation="1.95"/>
<feComposite in2="hardAlpha" operator="out"/>
<feColorMatrix type="matrix" values="0 0 0 0 0.305029 0 0 0 0 0.559852 0 0 0 0 1 0 0 0 1 0"/>
<feBlend mode="normal" in2="BackgroundImageFix" result="effect1_dropShadow_4004_1936"/>
<feColorMatrix in="SourceAlpha" type="matrix" values="0 0 0 0 0 0 0 0 0 0 0 0 0 0 0 0 0 0 127 0" result="hardAlpha"/>
<feMorphology radius="0.544378" operator="dilate" in="SourceAlpha" result="effect2_dropShadow_4004_1936"/>
<feOffset/>
<feGaussianBlur stdDeviation="3.4"/>
<feComposite in2="hardAlpha" operator="out"/>
<feColorMatrix type="matrix" values="0 0 0 0 0 0 0 0 0 0.483333 0 0 0 0 1 0 0 0 1 0"/>
<feBlend mode="normal" in2="effect1_dropShadow_4004_1936" result="effect2_dropShadow_4004_1936"/>
<feColorMatrix in="SourceAlpha" type="matrix" values="0 0 0 0 0 0 0 0 0 0 0 0 0 0 0 0 0 0 127 0" result="hardAlpha"/>
<feMorphology radius="0.544378" operator="dilate" in="SourceAlpha" result="effect3_dropShadow_4004_1936"/>
<feOffset/>
<feGaussianBlur stdDeviation="7.15857"/>
<feComposite in2="hardAlpha" operator="out"/>
<feColorMatrix type="matrix" values="0 0 0 0 0 0 0 0 0 0.483333 0 0 0 0 1 0 0 0 1 0"/>
<feBlend mode="normal" in2="effect2_dropShadow_4004_1936" result="effect3_dropShadow_4004_1936"/>
<feBlend mode="normal" in="SourceGraphic" in2="effect3_dropShadow_4004_1936" result="shape"/>
<feColorMatrix in="SourceAlpha" type="matrix" values="0 0 0 0 0 0 0 0 0 0 0 0 0 0 0 0 0 0 127 0" result="hardAlpha"/>
<feOffset/>
<feGaussianBlur stdDeviation="0.626034"/>
<feComposite in2="hardAlpha" operator="arithmetic" k2="-1" k3="1"/>
<feColorMatrix type="matrix" values="0 0 0 0 1 0 0 0 0 1 0 0 0 0 1 0 0 0 1 0"/>
<feBlend mode="normal" in2="shape" result="effect4_innerShadow_4004_1936"/>
</filter>
<linearGradient id="paint0_linear_4004_1936" x1="87.6172" y1="25.0009" x2="87.6172" y2="9.55164" gradientUnits="userSpaceOnUse">
<stop stop-color="#93DBFF"/>
<stop offset="0.679984" stop-color="#5DC7FC"/>
</linearGradient>
</defs>
</svg>
