<svg width="550" height="46" viewBox="0 0 550 46" fill="none" xmlns="http://www.w3.org/2000/svg">
<path d="M366.672 38.9821C366.672 39.5344 367.12 39.9821 367.672 39.9821H384.42C388.677 39.9821 392.073 39.2321 394.467 37.5918L394.47 37.5901C396.93 35.8942 398.181 33.487 398.181 30.4751C398.181 28.5017 397.678 26.7666 396.62 25.3283C395.834 24.2049 394.801 23.3081 393.545 22.6306C394.188 22.1108 394.744 21.5213 395.207 20.8599C396.192 19.4674 396.675 17.8598 396.675 16.0751C396.675 13.3256 395.511 11.0822 393.258 9.42365C390.998 7.73065 387.7 6.9668 383.534 6.9668H367.672C367.12 6.9668 366.672 7.41451 366.672 7.9668V38.9821ZM382.382 19.2843H377.356V15.3028H382.382C383.777 15.3028 384.647 15.5456 385.143 15.8829C385.151 15.8882 385.158 15.8933 385.166 15.8983C385.572 16.1577 385.813 16.5498 385.813 17.2714C385.813 17.9928 385.57 18.4137 385.143 18.7042C384.647 19.0415 383.777 19.2843 382.382 19.2843ZM377.356 31.6461V27.3545H383.711C385.129 27.3545 386.027 27.6096 386.554 27.9742C386.566 27.9825 386.578 27.9905 386.59 27.9982C387.056 28.2911 387.319 28.7283 387.319 29.5003C387.319 30.2704 387.055 30.7349 386.572 31.0583C386.04 31.4045 385.133 31.6461 383.711 31.6461H377.356Z" stroke="#FBCFEC" stroke-opacity="0.6" stroke-width="2" stroke-linejoin="round"/>
<path d="M407.823 35.773L407.809 35.7595C406.178 34.192 404.907 32.3706 403.997 30.3013C403.08 28.2132 402.628 25.9331 402.628 23.4744C402.628 21.0158 403.08 18.7356 403.997 16.6475L404.878 17.0343L403.997 16.6475C404.907 14.5765 406.181 12.7672 407.816 11.227L407.823 35.773ZM407.823 35.773C409.487 37.3117 411.43 38.5002 413.64 39.3408C415.863 40.1858 418.274 40.6024 420.864 40.6024M407.823 35.773L420.864 40.6024M420.864 40.6024C423.48 40.6024 425.893 40.1866 428.089 39.3398C430.3 38.4987 432.23 37.3089 433.867 35.7665C435.501 34.2271 436.774 32.4187 437.684 30.3489C438.631 28.2325 439.099 25.9367 439.099 23.4744C439.099 21.0134 438.632 18.731 437.683 16.6418C436.774 14.5746 435.502 12.7682 433.871 11.2301C432.234 9.65726 430.303 8.45105 428.089 7.60891C425.893 6.76216 423.48 6.34644 420.864 6.34644C418.274 6.34644 415.863 6.763 413.64 7.60805C411.426 8.45019 409.481 9.65593 407.816 11.2266L420.864 40.6024ZM423.771 30.7871L423.771 30.7871L423.762 30.7909C422.888 31.1505 421.926 31.3359 420.864 31.3359C419.803 31.3359 418.824 31.1512 417.917 30.789C417.042 30.4283 416.273 29.9166 415.603 29.2498C414.962 28.5537 414.439 27.7219 414.041 26.7429C413.678 25.7802 413.489 24.6946 413.489 23.4744C413.489 22.2195 413.68 21.1368 414.039 20.2102C414.439 19.2259 414.963 18.4088 415.602 17.7434C416.275 17.0448 417.045 16.5195 417.917 16.1598C418.824 15.7976 419.803 15.6129 420.864 15.6129C421.926 15.6129 422.888 15.7983 423.762 16.1579L423.762 16.1579L423.771 16.1617C424.671 16.5215 425.432 17.0433 426.067 17.7292C426.076 17.7386 426.085 17.7478 426.094 17.7569C426.754 18.4172 427.271 19.2245 427.638 20.1951C427.642 20.2054 427.646 20.2156 427.65 20.2258C428.034 21.1475 428.238 22.2243 428.238 23.4744C428.238 24.6912 428.035 25.7726 427.646 26.7319L427.638 26.7537C427.27 27.7272 426.749 28.555 426.08 29.2497L426.08 29.2502C425.444 29.9112 424.679 30.4239 423.771 30.7871Z" stroke="#FBCFEC" stroke-opacity="0.6" stroke-width="2" stroke-linejoin="round"/>
<path d="M448.955 35.773L448.941 35.7595C447.311 34.192 446.039 32.3706 445.13 30.3013C444.212 28.2132 443.76 25.9331 443.76 23.4744C443.76 21.0158 444.212 18.7356 445.13 16.6475L446.01 17.0343L445.13 16.6475C446.04 14.5765 447.314 12.7672 448.948 11.227L448.955 35.773ZM448.955 35.773C450.62 37.3117 452.563 38.5002 454.773 39.3408C456.995 40.1858 459.406 40.6024 461.996 40.6024M448.955 35.773L461.996 40.6024M461.996 40.6024C464.613 40.6024 467.026 40.1866 469.222 39.3398C471.433 38.4987 473.363 37.3089 474.999 35.7665C476.633 34.2271 477.907 32.4187 478.817 30.3489C479.764 28.2325 480.232 25.9367 480.232 23.4744C480.232 21.0134 479.764 18.731 478.816 16.6418C477.906 14.5746 476.634 12.7682 475.003 11.2301C473.366 9.65726 471.435 8.45105 469.222 7.60891C467.025 6.76216 464.613 6.34644 461.996 6.34644C459.406 6.34644 456.995 6.763 454.773 7.60805C452.559 8.45019 450.614 9.65593 448.949 11.2266L461.996 40.6024ZM464.904 30.7871L464.904 30.7871L464.894 30.7909C464.021 31.1505 463.059 31.3359 461.996 31.3359C460.936 31.3359 459.957 31.1512 459.049 30.789C458.175 30.4283 457.406 29.9166 456.735 29.2498C456.094 28.5537 455.572 27.7219 455.174 26.7429C454.811 25.7802 454.622 24.6946 454.622 23.4744C454.622 22.2195 454.813 21.1368 455.172 20.2102C455.572 19.2259 456.095 18.4088 456.735 17.7434C457.408 17.0448 458.177 16.5195 459.049 16.1598C459.957 15.7976 460.936 15.6129 461.996 15.6129C463.059 15.6129 464.021 15.7983 464.894 16.1579L464.894 16.1579L464.904 16.1617C465.803 16.5215 466.564 17.0433 467.2 17.7292C467.208 17.7386 467.217 17.7478 467.226 17.7569C467.887 18.4172 468.403 19.2245 468.77 20.1951C468.774 20.2054 468.778 20.2156 468.783 20.2258C469.167 21.1475 469.37 22.2243 469.37 23.4744C469.37 24.6912 469.168 25.7726 468.779 26.7319L468.77 26.7537C468.402 27.7272 467.882 28.555 467.213 29.2497L467.213 29.2502C466.577 29.9112 465.812 30.4239 464.904 30.7871Z" stroke="#FBCFEC" stroke-opacity="0.6" stroke-width="2" stroke-linejoin="round"/>
<path d="M495.698 18.3119V7.9668C495.698 7.41451 495.251 6.9668 494.698 6.9668H486.014C485.462 6.9668 485.014 7.41451 485.014 7.9668V38.9821C485.014 39.5344 485.462 39.9821 486.014 39.9821H494.698C495.251 39.9821 495.698 39.5344 495.698 38.9821V31.6066L497.892 29.2563L506.054 39.6015C506.243 39.8419 506.533 39.9821 506.839 39.9821H517.029C517.411 39.9821 517.759 39.7655 517.927 39.4235C518.095 39.0815 518.054 38.6737 517.822 38.3718L505.009 21.743L517.1 8.64508C517.369 8.35322 517.44 7.92957 517.281 7.56572C517.122 7.20187 516.762 6.9668 516.365 6.9668H506.706C506.428 6.9668 506.163 7.08207 505.974 7.28504L495.698 18.3119Z" stroke="#FBCFEC" stroke-opacity="0.6" stroke-width="2" stroke-linejoin="round"/>
<path d="M526.071 39.6353L526.086 39.6391C528.535 40.2821 531.072 40.6024 533.695 40.6024C536.856 40.6024 539.549 40.1326 541.728 39.1398C543.896 38.1656 545.58 36.8465 546.71 35.1521C547.851 33.4564 548.43 31.5946 548.43 29.5889C548.43 27.8414 548.082 26.3081 547.317 25.0494C546.62 23.8265 545.684 22.8386 544.515 22.1015C543.401 21.3708 542.168 20.803 540.821 20.3945C539.549 19.9712 538.262 19.623 536.959 19.3503C535.728 19.0864 534.585 18.8373 533.529 18.6028C532.575 18.3562 531.842 18.0676 531.304 17.7541C530.947 17.5095 530.84 17.2636 530.84 16.9612C530.84 16.6509 530.929 16.3964 531.114 16.1612C531.269 15.963 531.594 15.7237 532.227 15.521C532.239 15.5174 532.25 15.5135 532.261 15.5095C532.849 15.298 533.695 15.1698 534.847 15.1698C536.103 15.1698 537.414 15.3609 538.781 15.7516L538.8 15.7567C540.162 16.1182 541.551 16.6777 542.967 17.4423C543.216 17.5767 543.51 17.5994 543.777 17.5048C544.044 17.4101 544.258 17.207 544.366 16.9457L547.069 10.4325C547.261 9.96863 547.08 9.43397 546.645 9.18301C545.012 8.24093 543.16 7.54353 541.1 7.08144C539.074 6.59121 537.004 6.34644 534.891 6.34644C531.755 6.34644 529.065 6.81729 526.86 7.8078C524.692 8.78194 522.996 10.0991 521.838 11.7874L521.838 11.7873L521.83 11.7985C520.713 13.474 520.156 15.3517 520.156 17.4043C520.156 19.1854 520.505 20.7485 521.271 22.0359L521.271 22.036L521.277 22.0463C522.003 23.2346 522.949 24.2137 524.107 24.9747L524.124 24.9857C525.23 25.6809 526.44 26.2458 527.751 26.6828L527.751 26.6828L527.758 26.685C529.059 27.1086 530.348 27.4575 531.624 27.731L531.629 27.732C532.887 27.9953 534.024 28.2578 535.041 28.5192C536.009 28.7682 536.744 29.0735 537.278 29.4134C537.67 29.6624 537.79 29.9203 537.79 30.2535C537.79 30.4932 537.715 30.6969 537.524 30.9044L537.521 30.907C537.367 31.0758 537.029 31.2999 536.376 31.5107C535.762 31.68 534.894 31.779 533.739 31.779C532.046 31.779 530.331 31.516 528.592 30.9839C526.861 30.4159 525.348 29.7122 524.042 28.8789C523.797 28.7222 523.495 28.6803 523.216 28.7641C522.937 28.8479 522.709 29.0491 522.59 29.3151L519.71 35.784C519.514 36.226 519.662 36.7455 520.062 37.0176C521.654 38.1005 523.668 38.9659 526.071 39.6353Z" stroke="#FBCFEC" stroke-opacity="0.6" stroke-width="2" stroke-linejoin="round"/>
<path d="M1.56982 38.5499C1.56982 39.1022 2.01754 39.5499 2.56982 39.5499H19.3181C23.5748 39.5499 26.9702 38.7998 29.365 37.1595L29.3674 37.1579C31.8281 35.462 33.0787 33.0547 33.0787 30.0428C33.0787 28.0695 32.5754 26.3343 31.5177 24.8961C30.7313 23.7726 29.6984 22.8759 28.4424 22.1984C29.0856 21.6786 29.6418 21.0891 30.1051 20.4276C31.0894 19.0352 31.5722 17.4275 31.5722 15.6428C31.5722 12.8933 30.409 10.65 28.1555 8.9914C25.8957 7.2984 22.5981 6.53455 18.4319 6.53455H2.56982C2.01754 6.53455 1.56982 6.98226 1.56982 7.53455V38.5499ZM17.28 18.8521H12.2541V14.8705H17.28C18.6748 14.8705 19.5446 15.1133 20.0407 15.4507C20.0484 15.4559 20.0561 15.461 20.064 15.466C20.4694 15.7255 20.7107 16.1175 20.7107 16.8391C20.7107 17.5605 20.4678 17.9815 20.0407 18.2719C19.5446 18.6093 18.6748 18.8521 17.28 18.8521ZM12.2541 31.2139V26.9222H18.6092C20.0262 26.9222 20.925 27.1773 21.4517 27.5419C21.4636 27.5502 21.4757 27.5582 21.488 27.566C21.9532 27.8589 22.2172 28.2961 22.2172 29.068C22.2172 29.8381 21.9529 30.3026 21.47 30.6261C20.938 30.9723 20.0306 31.2139 18.6092 31.2139H12.2541Z" stroke="#FBCFEC" stroke-opacity="0.6" stroke-width="2" stroke-linejoin="round"/>
<path d="M39.0786 38.5499C39.0786 39.1022 39.5263 39.5499 40.0786 39.5499H63.6503C64.2025 39.5499 64.6503 39.1022 64.6503 38.5499V31.5936C64.6503 31.0413 64.2025 30.5936 63.6503 30.5936H49.8515V7.53455C49.8515 6.98226 49.4038 6.53455 48.8515 6.53455H40.0786C39.5263 6.53455 39.0786 6.98226 39.0786 7.53455V38.5499Z" stroke="#FBCFEC" stroke-opacity="0.6" stroke-width="2" stroke-linejoin="round"/>
<path d="M74.5694 35.425L74.5623 35.4182C72.9321 33.8507 71.6602 32.0293 70.751 29.96C69.8335 27.8719 69.3816 25.5917 69.3816 23.1331C69.3816 20.6745 69.8335 18.3943 70.751 16.3062C71.661 14.2352 72.9349 12.4259 74.5692 10.8857L74.5694 35.425ZM74.5694 35.425L74.5766 35.4317M74.5694 35.425L74.5766 35.4317M74.5766 35.4317C76.241 36.9704 78.1836 38.1588 80.3941 38.9995C82.6163 39.8445 85.0274 40.2611 87.6173 40.2611M74.5766 35.4317L87.6173 40.2611M87.6173 40.2611C90.234 40.2611 92.6466 39.8453 94.8428 38.9985C97.0538 38.1574 98.9838 36.9675 100.621 35.4252C102.254 33.8858 103.528 32.0774 104.438 30.0076C105.385 27.8912 105.853 25.5954 105.853 23.1331C105.853 20.672 105.385 18.3897 104.437 16.3005C103.527 14.2332 102.256 12.4269 100.624 10.8888C98.9875 9.31595 97.0563 8.10974 94.8426 7.2676C92.6465 6.42085 90.234 6.00513 87.6173 6.00513C85.0274 6.00513 82.6163 6.42169 80.3941 7.26674C78.1796 8.10888 76.2347 9.31462 74.5696 10.8853L87.6173 40.2611Z" stroke="#FBCFEC" stroke-opacity="0.6" stroke-width="2"/>
<path d="M87.7858 10.7343L99.8957 22.8442M87.7858 10.7343L75.6759 22.8442M87.7858 10.7343V5.70569M99.8957 22.8442L87.7858 34.9541M99.8957 22.8442H105.553M87.7858 34.9541L75.6759 22.8442M87.7858 34.9541V40.3788M75.6759 22.8442L69.6816 22.8442" stroke="#B095A7" stroke-width="1.5"/>
<g filter="url(#filter0_dddi_4057_1309)">
<path d="M87.6172 15.2573L92.831 22.982L87.6172 30.7066L82.4033 22.982L87.6172 15.2573Z" fill="#D9D9D9"/>
<path d="M87.6172 15.2573L92.831 22.982L87.6172 30.7066L82.4033 22.982L87.6172 15.2573Z" fill="url(#paint0_linear_4057_1309)"/>
</g>
<path d="M116.352 35.372L116.352 35.372L116.359 35.3787C117.994 36.9193 119.908 38.1094 122.091 38.9512L122.107 38.9573C124.324 39.7694 126.716 40.1702 129.274 40.1702C132.257 40.1702 134.955 39.6471 137.348 38.5766L137.348 38.5766L137.353 38.5742C139.762 37.4789 141.779 35.9377 143.388 33.9508C143.722 33.5382 143.675 32.9363 143.282 32.5801L137.699 27.529C137.498 27.3475 137.232 27.255 136.962 27.2727C136.692 27.2904 136.441 27.4168 136.266 27.6229C135.335 28.7182 134.328 29.5307 133.249 30.0833L133.249 30.0833L133.24 30.0879C132.217 30.6252 131.05 30.9038 129.717 30.9038C128.557 30.9038 127.515 30.7153 126.579 30.3515C125.645 29.9881 124.853 29.4761 124.19 28.8176C123.549 28.1215 123.027 27.2898 122.629 26.3108C122.266 25.348 122.077 24.2625 122.077 23.0423C122.077 21.8221 122.266 20.7365 122.629 19.7738C123.028 18.7914 123.551 17.9757 124.19 17.3113C124.854 16.6215 125.647 16.0957 126.579 15.7331C127.515 15.3693 128.557 15.1808 129.717 15.1808C131.05 15.1808 132.217 15.4594 133.24 15.9966L133.24 15.9967L133.249 16.0013C134.328 16.5539 135.335 17.3663 136.266 18.4616C136.441 18.6678 136.692 18.7941 136.962 18.8118C137.232 18.8295 137.498 18.7371 137.699 18.5555L143.282 13.5044C143.673 13.1502 143.722 12.5526 143.393 12.1397C141.783 10.1199 139.762 8.57455 137.345 7.50698C134.953 6.43714 132.256 5.91431 129.274 5.91431C126.714 5.91431 124.319 6.33092 122.099 7.17454C119.913 7.98694 117.996 9.16348 116.359 10.7059L116.359 10.7059L116.352 10.7126C114.748 12.2543 113.491 14.0778 112.584 16.1737C111.666 18.2626 111.216 20.557 111.216 23.0423C111.216 25.5288 111.667 27.8367 112.583 29.9527L112.583 29.9527L112.585 29.9578C113.493 32.0248 114.75 33.8321 116.352 35.372Z" stroke="#FBCFEC" stroke-opacity="0.6" stroke-width="2" stroke-linejoin="round"/>
<path d="M159.516 17.8796V7.53455C159.516 6.98226 159.068 6.53455 158.516 6.53455H149.832C149.28 6.53455 148.832 6.98226 148.832 7.53455V38.5499C148.832 39.1022 149.28 39.5499 149.832 39.5499H158.516C159.068 39.5499 159.516 39.1022 159.516 38.5499V31.1744L161.71 28.8241L169.871 39.1693C170.061 39.4096 170.35 39.5499 170.656 39.5499H180.847C181.228 39.5499 181.576 39.3332 181.744 38.9913C181.913 38.6493 181.872 38.2414 181.639 37.9395L168.827 21.3108L180.917 8.21283C181.187 7.92096 181.258 7.49732 181.099 7.13347C180.939 6.76962 180.58 6.53455 180.182 6.53455H170.523C170.246 6.53455 169.981 6.64982 169.792 6.85279L159.516 17.8796Z" stroke="#FBCFEC" stroke-opacity="0.6" stroke-width="2" stroke-linejoin="round"/>
<path d="M187.107 35.372L187.107 35.372L187.114 35.3787C188.749 36.9193 190.663 38.1094 192.845 38.9512L192.861 38.9573C195.079 39.7694 197.471 40.1702 200.028 40.1702C203.011 40.1702 205.709 39.6471 208.102 38.5766L208.102 38.5766L208.107 38.5742C210.517 37.4789 212.534 35.9377 214.142 33.9508C214.476 33.5382 214.43 32.9363 214.036 32.5801L208.453 27.529C208.252 27.3475 207.987 27.255 207.717 27.2727C207.447 27.2904 207.196 27.4168 207.02 27.6229C206.089 28.7182 205.082 29.5307 204.003 30.0833L204.003 30.0833L203.994 30.0879C202.971 30.6252 201.804 30.9038 200.471 30.9038C199.311 30.9038 198.269 30.7153 197.334 30.3515C196.399 29.9881 195.607 29.4761 194.945 28.8176C194.304 28.1215 193.781 27.2898 193.383 26.3108C193.02 25.348 192.831 24.2625 192.831 23.0423C192.831 21.8221 193.02 20.7365 193.383 19.7738C193.783 18.7914 194.306 17.9757 194.944 17.3113C195.609 16.6215 196.401 16.0957 197.334 15.7331C198.269 15.3693 199.311 15.1808 200.471 15.1808C201.804 15.1808 202.971 15.4594 203.994 15.9966L203.994 15.9967L204.003 16.0013C205.082 16.5539 206.089 17.3663 207.02 18.4616C207.196 18.6678 207.447 18.7941 207.717 18.8118C207.987 18.8295 208.252 18.7371 208.453 18.5555L214.036 13.5044C214.427 13.1502 214.476 12.5526 214.147 12.1397C212.538 10.1199 210.517 8.57455 208.1 7.50698C205.707 6.43714 203.01 5.91431 200.028 5.91431C197.468 5.91431 195.073 6.33092 192.853 7.17454C190.667 7.98694 188.751 9.16348 187.114 10.7059L187.114 10.7059L187.107 10.7126C185.502 12.2543 184.246 14.0778 183.338 16.1737C182.421 18.2626 181.97 20.557 181.97 23.0423C181.97 25.5288 182.421 27.8367 183.337 29.9527L183.337 29.9527L183.339 29.9578C184.248 32.0248 185.504 33.8321 187.107 35.372Z" stroke="#FBCFEC" stroke-opacity="0.6" stroke-width="2" stroke-linejoin="round"/>
<path d="M241.221 6.53455C240.668 6.53455 240.221 6.98226 240.221 7.53455V18.1874H230.258V7.53455C230.258 6.98226 229.81 6.53455 229.258 6.53455H220.485C219.932 6.53455 219.485 6.98226 219.485 7.53455V38.5499C219.485 39.1022 219.932 39.5499 220.485 39.5499H229.258C229.81 39.5499 230.258 39.1022 230.258 38.5499V27.4539H240.221V38.5499C240.221 39.1022 240.668 39.5499 241.221 39.5499H249.993C250.546 39.5499 250.993 39.1022 250.993 38.5499V7.53455C250.993 6.98226 250.546 6.53455 249.993 6.53455H241.221Z" stroke="#FBCFEC" stroke-opacity="0.6" stroke-width="2" stroke-linejoin="round"/>
<path d="M255.821 38.146C255.685 38.4553 255.714 38.8126 255.899 39.0958C256.083 39.3791 256.398 39.5499 256.736 39.5499H265.686C266.095 39.5499 266.462 39.3014 266.615 38.9223L268.781 33.524H280.581L282.747 38.9223C282.899 39.3014 283.267 39.5499 283.675 39.5499H292.803C293.141 39.5499 293.456 39.3789 293.641 39.0953C293.825 38.8118 293.854 38.4542 293.717 38.1449L279.982 7.12962C279.821 6.76784 279.463 6.53455 279.067 6.53455H270.427C270.031 6.53455 269.673 6.76834 269.513 7.13071L255.821 38.146ZM274.681 18.823L277.182 25.0551H272.18L274.681 18.823Z" stroke="#FBCFEC" stroke-opacity="0.6" stroke-width="2" stroke-linejoin="round"/>
<path d="M298.546 38.5499C298.546 39.1022 298.993 39.5499 299.546 39.5499H308.319C308.871 39.5499 309.319 39.1022 309.319 38.5499V7.53455C309.319 6.98226 308.871 6.53455 308.319 6.53455H299.546C298.993 6.53455 298.546 6.98226 298.546 7.53455V38.5499Z" stroke="#FBCFEC" stroke-opacity="0.6" stroke-width="2" stroke-linejoin="round"/>
<path d="M314.062 38.5499C314.062 39.1022 314.509 39.5499 315.062 39.5499H323.657C324.21 39.5499 324.657 39.1022 324.657 38.5499V24.7962L336.578 39.1878C336.768 39.4171 337.051 39.5499 337.348 39.5499H344.571C345.123 39.5499 345.571 39.1022 345.571 38.5499V7.53455C345.571 6.98226 345.123 6.53455 344.571 6.53455H335.975C335.423 6.53455 334.975 6.98226 334.975 7.53455V21.2882L323.054 6.89664C322.864 6.66729 322.582 6.53455 322.284 6.53455H315.062C314.509 6.53455 314.062 6.98226 314.062 7.53455V38.5499Z" stroke="#FBCFEC" stroke-opacity="0.6" stroke-width="2" stroke-linejoin="round"/>
<defs>
<filter id="filter0_dddi_4057_1309" x="67.5418" y="0.395812" width="40.1508" height="45.1722" filterUnits="userSpaceOnUse" color-interpolation-filters="sRGB">
<feFlood flood-opacity="0" result="BackgroundImageFix"/>
<feColorMatrix in="SourceAlpha" type="matrix" values="0 0 0 0 0 0 0 0 0 0 0 0 0 0 0 0 0 0 127 0" result="hardAlpha"/>
<feMorphology radius="0.272189" operator="dilate" in="SourceAlpha" result="effect1_dropShadow_4057_1309"/>
<feOffset/>
<feGaussianBlur stdDeviation="1.95"/>
<feComposite in2="hardAlpha" operator="out"/>
<feColorMatrix type="matrix" values="0 0 0 0 0.305029 0 0 0 0 0.559852 0 0 0 0 1 0 0 0 1 0"/>
<feBlend mode="normal" in2="BackgroundImageFix" result="effect1_dropShadow_4057_1309"/>
<feColorMatrix in="SourceAlpha" type="matrix" values="0 0 0 0 0 0 0 0 0 0 0 0 0 0 0 0 0 0 127 0" result="hardAlpha"/>
<feMorphology radius="0.544378" operator="dilate" in="SourceAlpha" result="effect2_dropShadow_4057_1309"/>
<feOffset/>
<feGaussianBlur stdDeviation="3.4"/>
<feComposite in2="hardAlpha" operator="out"/>
<feColorMatrix type="matrix" values="0 0 0 0 0 0 0 0 0 0.483333 0 0 0 0 1 0 0 0 1 0"/>
<feBlend mode="normal" in2="effect1_dropShadow_4057_1309" result="effect2_dropShadow_4057_1309"/>
<feColorMatrix in="SourceAlpha" type="matrix" values="0 0 0 0 0 0 0 0 0 0 0 0 0 0 0 0 0 0 127 0" result="hardAlpha"/>
<feMorphology radius="0.544378" operator="dilate" in="SourceAlpha" result="effect3_dropShadow_4057_1309"/>
<feOffset/>
<feGaussianBlur stdDeviation="7.15857"/>
<feComposite in2="hardAlpha" operator="out"/>
<feColorMatrix type="matrix" values="0 0 0 0 0 0 0 0 0 0.483333 0 0 0 0 1 0 0 0 1 0"/>
<feBlend mode="normal" in2="effect2_dropShadow_4057_1309" result="effect3_dropShadow_4057_1309"/>
<feBlend mode="normal" in="SourceGraphic" in2="effect3_dropShadow_4057_1309" result="shape"/>
<feColorMatrix in="SourceAlpha" type="matrix" values="0 0 0 0 0 0 0 0 0 0 0 0 0 0 0 0 0 0 127 0" result="hardAlpha"/>
<feOffset/>
<feGaussianBlur stdDeviation="0.626034"/>
<feComposite in2="hardAlpha" operator="arithmetic" k2="-1" k3="1"/>
<feColorMatrix type="matrix" values="0 0 0 0 1 0 0 0 0 1 0 0 0 0 1 0 0 0 1 0"/>
<feBlend mode="normal" in2="shape" result="effect4_innerShadow_4057_1309"/>
</filter>
<linearGradient id="paint0_linear_4057_1309" x1="87.6172" y1="30.7066" x2="87.6172" y2="15.2573" gradientUnits="userSpaceOnUse">
<stop stop-color="#93DBFF"/>
<stop offset="0.679984" stop-color="#5DC7FC"/>
</linearGradient>
</defs>
</svg>
