<svg width="146" height="30" viewBox="0 0 146 30" fill="none" xmlns="http://www.w3.org/2000/svg">
<path d="M1.43221 27.4537C1.43221 27.8892 1.78523 28.2422 2.2207 28.2422H15.4266C18.783 28.2422 21.4603 27.6508 23.3486 26.3574L23.3505 26.3562C25.2907 25.019 26.2768 23.1209 26.2768 20.746C26.2768 19.19 25.8799 17.8218 25.0459 16.6878C24.4258 15.8019 23.6115 15.0949 22.6211 14.5607C23.1283 14.1508 23.5669 13.6859 23.9322 13.1643C24.7083 12.0664 25.089 10.7988 25.089 9.39164C25.089 7.22363 24.1718 5.45475 22.3949 4.14698C20.613 2.81208 18.0129 2.2098 14.7279 2.2098H2.2207C1.78523 2.2098 1.43221 2.56282 1.43221 2.99829V27.4537ZM13.8196 11.9221H9.85672V8.78268H13.8196C14.9194 8.78268 15.6052 8.97413 15.9964 9.24013C16.0025 9.24425 16.0086 9.24828 16.0148 9.25223C16.3344 9.45681 16.5247 9.76594 16.5247 10.3349C16.5247 10.9037 16.3332 11.2357 15.9964 11.4646C15.6052 11.7307 14.9194 11.9221 13.8196 11.9221ZM9.85672 21.6693V18.2854H14.8677C15.985 18.2854 16.6937 18.4865 17.1089 18.774C17.1184 18.7805 17.1279 18.7869 17.1376 18.793C17.5044 19.0239 17.7125 19.3687 17.7125 19.9774C17.7125 20.5846 17.5041 20.9509 17.1233 21.2059C16.7038 21.4789 15.9883 21.6693 14.8677 21.6693H9.85672Z" stroke="#FBCFEC" stroke-opacity="0.6" stroke-width="1.57699" stroke-linejoin="round"/>
<path d="M33.8793 24.9233L33.868 24.9127C32.5826 23.6768 31.5797 22.2406 30.8628 20.6089C30.1394 18.9625 29.783 17.1646 29.783 15.226C29.783 13.2874 30.1394 11.4894 30.8628 9.84302C31.5803 8.21002 32.5848 6.78338 33.8734 5.56899L33.8793 24.9233ZM33.8793 24.9233C35.1916 26.1367 36.7234 27.0737 38.4664 27.7365C40.2185 28.4028 42.1197 28.7313 44.1618 28.7313M33.8793 24.9233L44.1618 28.7313M44.1618 28.7313C46.2251 28.7313 48.1273 28.4035 49.859 27.7359C51.6024 27.0726 53.1242 26.1344 54.4148 24.9182C55.7029 23.7044 56.7071 22.2786 57.4246 20.6465C58.1714 18.9778 58.5405 17.1675 58.5405 15.226C58.5405 13.2854 58.1718 11.4858 57.4238 9.83847C56.7069 8.20845 55.7039 6.78414 54.4177 5.5714C53.1271 4.3312 51.6044 3.38011 49.8589 2.71609C48.1273 2.04845 46.225 1.72066 44.1618 1.72066C42.1197 1.72066 40.2185 2.04912 38.4664 2.71543C36.7201 3.37949 35.1865 4.33026 33.8736 5.56883L44.1618 28.7313ZM46.4542 20.992L46.4542 20.992L46.4468 20.995C45.7583 21.2786 44.9995 21.4248 44.1618 21.4248C43.3257 21.4248 42.5535 21.2791 41.8382 20.9935C41.1487 20.7091 40.5422 20.3056 40.0137 19.7799C39.5081 19.231 39.0962 18.5751 38.7821 17.8031C38.4962 17.0441 38.3473 16.1881 38.3473 15.226C38.3473 14.2365 38.4975 13.3828 38.7808 12.6522C39.0961 11.876 39.509 11.2318 40.0133 10.7071C40.5438 10.1563 41.1506 9.74211 41.8381 9.45844C42.5535 9.17284 43.3257 9.02721 44.1618 9.02721C44.9995 9.02721 45.7583 9.1734 46.4468 9.45693L46.4468 9.45697L46.4542 9.45992C47.1635 9.74364 47.7639 10.1551 48.2647 10.6959C48.2715 10.7033 48.2785 10.7106 48.2857 10.7178C48.8063 11.2384 49.2137 11.875 49.5032 12.6402C49.5063 12.6484 49.5095 12.6564 49.5128 12.6645C49.8157 13.3912 49.9762 14.2403 49.9762 15.226C49.9762 16.1854 49.8166 17.0381 49.51 17.7945L49.5032 17.8117C49.2128 18.5793 48.8027 19.232 48.2753 19.7798L48.2749 19.7802C47.7737 20.3014 47.1702 20.7056 46.4542 20.992Z" stroke="#FBCFEC" stroke-opacity="0.6" stroke-width="1.57699" stroke-linejoin="round"/>
<path d="M66.3121 24.9233L66.3009 24.9127C65.0155 23.6768 64.0126 22.2406 63.2957 20.6089C62.5722 18.9625 62.2159 17.1646 62.2159 15.226C62.2159 13.2874 62.5722 11.4894 63.2957 9.84302C64.0132 8.21002 65.0177 6.78338 66.3063 5.56899L66.3121 24.9233ZM66.3121 24.9233C67.6245 26.1367 69.1563 27.0737 70.8992 27.7365C72.6514 28.4028 74.5525 28.7313 76.5946 28.7313M66.3121 24.9233L76.5946 28.7313M76.5946 28.7313C78.6579 28.7313 80.5602 28.4035 82.2918 27.7359C84.0352 27.0726 85.557 26.1344 86.8477 24.9182C88.1358 23.7044 89.14 22.2786 89.8575 20.6465C90.6043 18.9778 90.9734 17.1675 90.9734 15.226C90.9734 13.2854 90.6046 11.4858 89.8567 9.83847C89.1397 8.20845 88.1368 6.78414 86.8506 5.5714C85.56 4.3312 84.0372 3.38011 82.2918 2.71609C80.5601 2.04845 78.6579 1.72066 76.5946 1.72066C74.5525 1.72066 72.6514 2.04912 70.8992 2.71543C69.153 3.37949 67.6194 4.33026 66.3065 5.56883L76.5946 28.7313ZM78.8871 20.992L78.8871 20.992L78.8797 20.995C78.1911 21.2786 77.4324 21.4248 76.5946 21.4248C75.7586 21.4248 74.9864 21.2791 74.271 20.9935C73.5816 20.7091 72.975 20.3056 72.4465 19.7799C71.9409 19.231 71.529 18.5751 71.215 17.8031C70.9291 17.0441 70.7802 16.1881 70.7802 15.226C70.7802 14.2365 70.9304 13.3828 71.2136 12.6522C71.529 11.876 71.9419 11.2318 72.4462 10.7071C72.9766 10.1563 73.5835 9.74211 74.271 9.45844C74.9864 9.17284 75.7585 9.02721 76.5946 9.02721C77.4324 9.02721 78.1911 9.1734 78.8797 9.45693L78.8797 9.45697L78.8871 9.45992C79.5964 9.74364 80.1967 10.1551 80.6975 10.6959C80.7044 10.7033 80.7114 10.7106 80.7185 10.7178C81.2392 11.2384 81.6465 11.875 81.9361 12.6402C81.9392 12.6484 81.9424 12.6564 81.9457 12.6645C82.2485 13.3912 82.4091 14.2403 82.4091 15.226C82.4091 16.1854 82.2495 17.0381 81.9428 17.7945L81.9361 17.8117C81.6457 18.5793 81.2356 19.232 80.7081 19.7798L80.7077 19.7802C80.2066 20.3014 79.6031 20.7056 78.8871 20.992Z" stroke="#FBCFEC" stroke-opacity="0.6" stroke-width="1.57699" stroke-linejoin="round"/>
<path d="M103.169 11.1553V2.99829C103.169 2.56282 102.816 2.2098 102.38 2.2098H95.5327C95.0972 2.2098 94.7442 2.56282 94.7442 2.99829V27.4537C94.7442 27.8892 95.0972 28.2422 95.5327 28.2422H102.38C102.816 28.2422 103.169 27.8892 103.169 27.4537V21.6382L104.898 19.785L111.334 27.9421C111.483 28.1316 111.711 28.2422 111.953 28.2422H119.988C120.289 28.2422 120.563 28.0714 120.696 27.8018C120.828 27.5321 120.796 27.2105 120.613 26.9725L110.51 13.8608L120.043 3.53311C120.256 3.30298 120.312 2.96894 120.186 2.68205C120.061 2.39515 119.777 2.2098 119.464 2.2098H111.848C111.629 2.2098 111.42 2.30068 111.271 2.46073L103.169 11.1553Z" stroke="#FBCFEC" stroke-opacity="0.6" stroke-width="1.57699" stroke-linejoin="round"/>
<path d="M127.118 27.9687L127.118 27.9688L127.129 27.9718C129.06 28.4787 131.061 28.7313 133.129 28.7313C135.622 28.7313 137.745 28.3609 139.463 27.5781C141.172 26.8099 142.5 25.7699 143.391 24.4339C144.291 23.0968 144.747 21.6288 144.747 20.0472C144.747 18.6694 144.473 17.4604 143.87 16.4679C143.32 15.5036 142.583 14.7247 141.66 14.1435C140.782 13.5673 139.81 13.1196 138.748 12.7975C137.745 12.4637 136.73 12.1892 135.703 11.9741C134.732 11.7661 133.83 11.5696 132.998 11.3847C132.245 11.1903 131.668 10.9628 131.243 10.7156C130.962 10.5227 130.878 10.3288 130.878 10.0903C130.878 9.84567 130.948 9.64503 131.094 9.45953C131.216 9.30325 131.472 9.11461 131.972 8.95476C131.981 8.95189 131.989 8.94886 131.998 8.94566C132.462 8.77891 133.129 8.67785 134.037 8.67785C135.028 8.67785 136.061 8.82853 137.139 9.13662L137.154 9.14059C138.228 9.42568 139.324 9.86685 140.44 10.4697C140.636 10.5757 140.868 10.5936 141.079 10.519C141.289 10.4443 141.458 10.2842 141.543 10.0781L143.674 4.94248C143.826 4.57674 143.683 4.15517 143.34 3.95729C142.052 3.21446 140.592 2.66455 138.967 2.3002C137.371 1.91366 135.738 1.72066 134.072 1.72066C131.6 1.72066 129.478 2.09193 127.74 2.87294C126.03 3.64104 124.693 4.67961 123.779 6.0108L123.779 6.01076L123.774 6.01958C122.893 7.34071 122.453 8.82131 122.453 10.4397C122.453 11.8441 122.729 13.0766 123.333 14.0918L123.333 14.0918L123.338 14.0999C123.91 15.0369 124.656 15.8089 125.569 16.409L125.582 16.4176C126.454 16.9658 127.409 17.4112 128.442 17.7558L128.442 17.7558L128.448 17.7575C129.474 18.0916 130.49 18.3666 131.496 18.5823L131.5 18.583C132.492 18.7907 133.389 18.9977 134.19 19.2038C134.954 19.4001 135.533 19.6408 135.954 19.9089C136.263 20.1052 136.358 20.3086 136.358 20.5712C136.358 20.7603 136.299 20.9209 136.148 21.0845L136.146 21.0865C136.024 21.2197 135.757 21.3964 135.243 21.5626C134.759 21.6961 134.074 21.7741 133.164 21.7741C131.828 21.7741 130.476 21.5667 129.105 21.1472C127.741 20.6994 126.547 20.1445 125.518 19.4874C125.324 19.3638 125.086 19.3308 124.866 19.3969C124.647 19.4629 124.466 19.6216 124.373 19.8313L122.102 24.932C121.947 25.2806 122.064 25.6902 122.379 25.9047C123.635 26.7586 125.223 27.441 127.118 27.9687Z" stroke="#FBCFEC" stroke-opacity="0.6" stroke-width="1.57699" stroke-linejoin="round"/>
</svg>
