<svg width="23" height="24" viewBox="0 0 23 24" fill="none" xmlns="http://www.w3.org/2000/svg">
<path d="M1.78525 7.19238H21.5119C22.3713 7.19238 22.9963 6.64548 22.9963 5.80568C22.9963 4.98538 22.3713 4.43848 21.5119 4.43848H1.78525C0.906374 4.43848 0.300903 4.98538 0.300903 5.80568C0.300903 6.64548 0.906374 7.19238 1.78525 7.19238ZM1.78525 13.6573H21.5119C22.3713 13.6573 22.9963 13.1104 22.9963 12.2705C22.9963 11.4502 22.3713 10.9034 21.5119 10.9034H1.78525C0.906374 10.9034 0.300903 11.4502 0.300903 12.2705C0.300903 13.1104 0.906374 13.6573 1.78525 13.6573ZM1.78525 20.1416H21.5119C22.3713 20.1416 22.9963 19.5752 22.9963 18.7549C22.9963 17.9346 22.3713 17.3877 21.5119 17.3877H1.78525C0.906374 17.3877 0.300903 17.9346 0.300903 18.7549C0.300903 19.5752 0.906374 20.1416 1.78525 20.1416Z" fill="white" fill-opacity="0.85"/>
<path d="M1.78525 7.19238H21.5119C22.3713 7.19238 22.9963 6.64548 22.9963 5.80568C22.9963 4.98538 22.3713 4.43848 21.5119 4.43848H1.78525C0.906374 4.43848 0.300903 4.98538 0.300903 5.80568C0.300903 6.64548 0.906374 7.19238 1.78525 7.19238ZM1.78525 13.6573H21.5119C22.3713 13.6573 22.9963 13.1104 22.9963 12.2705C22.9963 11.4502 22.3713 10.9034 21.5119 10.9034H1.78525C0.906374 10.9034 0.300903 11.4502 0.300903 12.2705C0.300903 13.1104 0.906374 13.6573 1.78525 13.6573ZM1.78525 20.1416H21.5119C22.3713 20.1416 22.9963 19.5752 22.9963 18.7549C22.9963 17.9346 22.3713 17.3877 21.5119 17.3877H1.78525C0.906374 17.3877 0.300903 17.9346 0.300903 18.7549C0.300903 19.5752 0.906374 20.1416 1.78525 20.1416Z" fill="url(#paint0_linear_4057_721)"/>
<defs>
<linearGradient id="paint0_linear_4057_721" x1="11.6486" y1="4.43848" x2="11.6486" y2="20.1416" gradientUnits="userSpaceOnUse">
<stop stop-color="#F1C4E2"/>
<stop offset="1" stop-color="#AF809F"/>
</linearGradient>
</defs>
</svg>
