<svg width="31" height="20" viewBox="0 0 31 20" fill="none" xmlns="http://www.w3.org/2000/svg">
<path d="M1.23647 19.7492C1.5807 19.7492 1.86887 19.6174 2.1125 19.3787L10.417 10.9948C10.7039 10.6984 10.8431 10.3759 10.8431 10.0036C10.8392 9.62024 10.702 9.28166 10.417 9.01235L2.10376 0.621401C1.87271 0.380755 1.58262 0.250854 1.23647 0.250854C0.540327 0.250854 0 0.816033 0 1.53115C0 1.87064 0.137267 2.20222 0.373007 2.45278L8.40509 10.5335V9.45667L0.373007 17.5544C0.139185 17.8029 0 18.1275 0 18.478C0 19.1911 0.540327 19.7492 1.23647 19.7492Z" fill="#FFD5CD"/>
<path d="M1.23647 19.7492C1.5807 19.7492 1.86887 19.6174 2.1125 19.3787L10.417 10.9948C10.7039 10.6984 10.8431 10.3759 10.8431 10.0036C10.8392 9.62024 10.702 9.28166 10.417 9.01235L2.10376 0.621401C1.87271 0.380755 1.58262 0.250854 1.23647 0.250854C0.540327 0.250854 0 0.816033 0 1.53115C0 1.87064 0.137267 2.20222 0.373007 2.45278L8.40509 10.5335V9.45667L0.373007 17.5544C0.139185 17.8029 0 18.1275 0 18.478C0 19.1911 0.540327 19.7492 1.23647 19.7492Z" fill="url(#paint0_linear_4002_1765)"/>
<path d="M1.23647 19.7492C1.5807 19.7492 1.86887 19.6174 2.1125 19.3787L10.417 10.9948C10.7039 10.6984 10.8431 10.3759 10.8431 10.0036C10.8392 9.62024 10.702 9.28166 10.417 9.01235L2.10376 0.621401C1.87271 0.380755 1.58262 0.250854 1.23647 0.250854C0.540327 0.250854 0 0.816033 0 1.53115C0 1.87064 0.137267 2.20222 0.373007 2.45278L8.40509 10.5335V9.45667L0.373007 17.5544C0.139185 17.8029 0 18.1275 0 18.478C0 19.1911 0.540327 19.7492 1.23647 19.7492Z" fill="url(#paint1_linear_4002_1765)"/>
<path d="M1.23647 19.7492C1.5807 19.7492 1.86887 19.6174 2.1125 19.3787L10.417 10.9948C10.7039 10.6984 10.8431 10.3759 10.8431 10.0036C10.8392 9.62024 10.702 9.28166 10.417 9.01235L2.10376 0.621401C1.87271 0.380755 1.58262 0.250854 1.23647 0.250854C0.540327 0.250854 0 0.816033 0 1.53115C0 1.87064 0.137267 2.20222 0.373007 2.45278L8.40509 10.5335V9.45667L0.373007 17.5544C0.139185 17.8029 0 18.1275 0 18.478C0 19.1911 0.540327 19.7492 1.23647 19.7492Z" fill="url(#paint2_linear_4002_1765)"/>
<path d="M11.0246 19.7492C11.3688 19.7492 11.657 19.6174 11.9006 19.3787L20.2051 10.9948C20.492 10.6984 20.6312 10.3759 20.6312 10.0036C20.6273 9.62024 20.4901 9.28166 20.2051 9.01236L11.8918 0.621401C11.6608 0.380755 11.3707 0.250854 11.0246 0.250854C10.3284 0.250854 9.78809 0.816033 9.78809 1.53115C9.78809 1.87064 9.92535 2.20222 10.1611 2.45278L18.1932 10.5335V9.45667L10.1611 17.5544C9.92727 17.8029 9.78809 18.1275 9.78809 18.478C9.78809 19.1911 10.3284 19.7492 11.0246 19.7492Z" fill="#FFD5CD"/>
<path d="M11.0246 19.7492C11.3688 19.7492 11.657 19.6174 11.9006 19.3787L20.2051 10.9948C20.492 10.6984 20.6312 10.3759 20.6312 10.0036C20.6273 9.62024 20.4901 9.28166 20.2051 9.01236L11.8918 0.621401C11.6608 0.380755 11.3707 0.250854 11.0246 0.250854C10.3284 0.250854 9.78809 0.816033 9.78809 1.53115C9.78809 1.87064 9.92535 2.20222 10.1611 2.45278L18.1932 10.5335V9.45667L10.1611 17.5544C9.92727 17.8029 9.78809 18.1275 9.78809 18.478C9.78809 19.1911 10.3284 19.7492 11.0246 19.7492Z" fill="url(#paint3_linear_4002_1765)"/>
<path d="M11.0246 19.7492C11.3688 19.7492 11.657 19.6174 11.9006 19.3787L20.2051 10.9948C20.492 10.6984 20.6312 10.3759 20.6312 10.0036C20.6273 9.62024 20.4901 9.28166 20.2051 9.01236L11.8918 0.621401C11.6608 0.380755 11.3707 0.250854 11.0246 0.250854C10.3284 0.250854 9.78809 0.816033 9.78809 1.53115C9.78809 1.87064 9.92535 2.20222 10.1611 2.45278L18.1932 10.5335V9.45667L10.1611 17.5544C9.92727 17.8029 9.78809 18.1275 9.78809 18.478C9.78809 19.1911 10.3284 19.7492 11.0246 19.7492Z" fill="url(#paint4_linear_4002_1765)"/>
<path d="M11.0246 19.7492C11.3688 19.7492 11.657 19.6174 11.9006 19.3787L20.2051 10.9948C20.492 10.6984 20.6312 10.3759 20.6312 10.0036C20.6273 9.62024 20.4901 9.28166 20.2051 9.01236L11.8918 0.621401C11.6608 0.380755 11.3707 0.250854 11.0246 0.250854C10.3284 0.250854 9.78809 0.816033 9.78809 1.53115C9.78809 1.87064 9.92535 2.20222 10.1611 2.45278L18.1932 10.5335V9.45667L10.1611 17.5544C9.92727 17.8029 9.78809 18.1275 9.78809 18.478C9.78809 19.1911 10.3284 19.7492 11.0246 19.7492Z" fill="url(#paint5_linear_4002_1765)"/>
<path d="M20.8129 19.7492C21.1571 19.7492 21.4453 19.6174 21.6889 19.3787L29.9934 10.9948C30.2803 10.6984 30.4195 10.3759 30.4195 10.0036C30.4156 9.62024 30.2784 9.28166 29.9934 9.01235L21.6802 0.621401C21.4491 0.380755 21.159 0.250854 20.8129 0.250854C20.1167 0.250854 19.5764 0.816033 19.5764 1.53115C19.5764 1.87064 19.7137 2.20222 19.9494 2.45278L27.9815 10.5335V9.45667L19.9494 17.5544C19.7156 17.8029 19.5764 18.1275 19.5764 18.478C19.5764 19.1911 20.1167 19.7492 20.8129 19.7492Z" fill="#FFD5CD"/>
<path d="M20.8129 19.7492C21.1571 19.7492 21.4453 19.6174 21.6889 19.3787L29.9934 10.9948C30.2803 10.6984 30.4195 10.3759 30.4195 10.0036C30.4156 9.62024 30.2784 9.28166 29.9934 9.01235L21.6802 0.621401C21.4491 0.380755 21.159 0.250854 20.8129 0.250854C20.1167 0.250854 19.5764 0.816033 19.5764 1.53115C19.5764 1.87064 19.7137 2.20222 19.9494 2.45278L27.9815 10.5335V9.45667L19.9494 17.5544C19.7156 17.8029 19.5764 18.1275 19.5764 18.478C19.5764 19.1911 20.1167 19.7492 20.8129 19.7492Z" fill="url(#paint6_linear_4002_1765)"/>
<path d="M20.8129 19.7492C21.1571 19.7492 21.4453 19.6174 21.6889 19.3787L29.9934 10.9948C30.2803 10.6984 30.4195 10.3759 30.4195 10.0036C30.4156 9.62024 30.2784 9.28166 29.9934 9.01235L21.6802 0.621401C21.4491 0.380755 21.159 0.250854 20.8129 0.250854C20.1167 0.250854 19.5764 0.816033 19.5764 1.53115C19.5764 1.87064 19.7137 2.20222 19.9494 2.45278L27.9815 10.5335V9.45667L19.9494 17.5544C19.7156 17.8029 19.5764 18.1275 19.5764 18.478C19.5764 19.1911 20.1167 19.7492 20.8129 19.7492Z" fill="url(#paint7_linear_4002_1765)"/>
<path d="M20.8129 19.7492C21.1571 19.7492 21.4453 19.6174 21.6889 19.3787L29.9934 10.9948C30.2803 10.6984 30.4195 10.3759 30.4195 10.0036C30.4156 9.62024 30.2784 9.28166 29.9934 9.01235L21.6802 0.621401C21.4491 0.380755 21.159 0.250854 20.8129 0.250854C20.1167 0.250854 19.5764 0.816033 19.5764 1.53115C19.5764 1.87064 19.7137 2.20222 19.9494 2.45278L27.9815 10.5335V9.45667L19.9494 17.5544C19.7156 17.8029 19.5764 18.1275 19.5764 18.478C19.5764 19.1911 20.1167 19.7492 20.8129 19.7492Z" fill="url(#paint8_linear_4002_1765)"/>
<defs>
<linearGradient id="paint0_linear_4002_1765" x1="5.5526" y1="-1.39212" x2="5.5526" y2="19.987" gradientUnits="userSpaceOnUse">
<stop stop-color="#FFD5CD"/>
<stop offset="1" stop-color="#C18F86"/>
</linearGradient>
<linearGradient id="paint1_linear_4002_1765" x1="5.71745" y1="1.17586" x2="14.3585" y2="16.8068" gradientUnits="userSpaceOnUse">
<stop stop-color="#BFADB9"/>
<stop offset="0.604224" stop-color="white"/>
<stop offset="1" stop-color="#BFADB9"/>
</linearGradient>
<linearGradient id="paint2_linear_4002_1765" x1="5.42155" y1="0.250854" x2="5.42155" y2="19.7492" gradientUnits="userSpaceOnUse">
<stop stop-color="#F1C4E2"/>
<stop offset="1" stop-color="#AF809F"/>
</linearGradient>
<linearGradient id="paint3_linear_4002_1765" x1="15.3407" y1="-1.39212" x2="15.3407" y2="19.987" gradientUnits="userSpaceOnUse">
<stop stop-color="#FFD5CD"/>
<stop offset="1" stop-color="#C18F86"/>
</linearGradient>
<linearGradient id="paint4_linear_4002_1765" x1="15.5055" y1="1.17586" x2="24.1466" y2="16.8068" gradientUnits="userSpaceOnUse">
<stop stop-color="#BFADB9"/>
<stop offset="0.604224" stop-color="white"/>
<stop offset="1" stop-color="#BFADB9"/>
</linearGradient>
<linearGradient id="paint5_linear_4002_1765" x1="15.2096" y1="0.250854" x2="15.2096" y2="19.7492" gradientUnits="userSpaceOnUse">
<stop stop-color="#F1C4E2"/>
<stop offset="1" stop-color="#AF809F"/>
</linearGradient>
<linearGradient id="paint6_linear_4002_1765" x1="25.129" y1="-1.39212" x2="25.129" y2="19.987" gradientUnits="userSpaceOnUse">
<stop stop-color="#FFD5CD"/>
<stop offset="1" stop-color="#C18F86"/>
</linearGradient>
<linearGradient id="paint7_linear_4002_1765" x1="25.2939" y1="1.17586" x2="33.9349" y2="16.8068" gradientUnits="userSpaceOnUse">
<stop stop-color="#BFADB9"/>
<stop offset="0.604224" stop-color="white"/>
<stop offset="1" stop-color="#BFADB9"/>
</linearGradient>
<linearGradient id="paint8_linear_4002_1765" x1="24.998" y1="0.250854" x2="24.998" y2="19.7492" gradientUnits="userSpaceOnUse">
<stop stop-color="#F1C4E2"/>
<stop offset="1" stop-color="#AF809F"/>
</linearGradient>
</defs>
</svg>
