<svg width="25" height="24" viewBox="0 0 25 24" fill="none" xmlns="http://www.w3.org/2000/svg">
<path fill-rule="evenodd" clip-rule="evenodd" d="M1.91484 11.5961C8.46454 8.75163 12.8248 6.86157 15.0142 5.94461C21.2458 3.34345 22.5557 2.89432 23.3979 2.87561C23.585 2.87561 23.9967 2.91304 24.2774 3.1376C24.5019 3.32473 24.5581 3.56801 24.5955 3.75514C24.6329 3.94228 24.6704 4.33526 24.6329 4.63467C24.2961 8.19022 22.8364 16.8171 22.0879 20.7844C21.7698 22.4686 21.1522 23.03 20.5534 23.0861C19.2435 23.1984 18.2517 22.2253 16.9979 21.4019C15.0142 20.1107 13.9101 19.306 11.9827 18.0335C9.75577 16.5738 11.1967 15.7692 12.4692 14.4592C12.8061 14.1224 18.5511 8.88262 18.6634 8.41478C18.6821 8.35864 18.6821 8.13408 18.5511 8.0218C18.4201 7.90952 18.2329 7.94695 18.0832 7.98437C17.8774 8.0218 14.7335 10.1177 8.61425 14.2534C7.716 14.8709 6.91133 15.1703 6.1815 15.1516C5.37683 15.1329 3.84233 14.7025 2.68209 14.3282C1.27859 13.8791 0.155782 13.6358 0.249349 12.8499C0.305489 12.4382 0.866892 12.0265 1.91484 11.5961Z" fill="#563A4A"/>
<path fill-rule="evenodd" clip-rule="evenodd" d="M1.91484 11.5961C8.46454 8.75163 12.8248 6.86157 15.0142 5.94461C21.2458 3.34345 22.5557 2.89432 23.3979 2.87561C23.585 2.87561 23.9967 2.91304 24.2774 3.1376C24.5019 3.32473 24.5581 3.56801 24.5955 3.75514C24.6329 3.94228 24.6704 4.33526 24.6329 4.63467C24.2961 8.19022 22.8364 16.8171 22.0879 20.7844C21.7698 22.4686 21.1522 23.03 20.5534 23.0861C19.2435 23.1984 18.2517 22.2253 16.9979 21.4019C15.0142 20.1107 13.9101 19.306 11.9827 18.0335C9.75577 16.5738 11.1967 15.7692 12.4692 14.4592C12.8061 14.1224 18.5511 8.88262 18.6634 8.41478C18.6821 8.35864 18.6821 8.13408 18.5511 8.0218C18.4201 7.90952 18.2329 7.94695 18.0832 7.98437C17.8774 8.0218 14.7335 10.1177 8.61425 14.2534C7.716 14.8709 6.91133 15.1703 6.1815 15.1516C5.37683 15.1329 3.84233 14.7025 2.68209 14.3282C1.27859 13.8791 0.155782 13.6358 0.249349 12.8499C0.305489 12.4382 0.866892 12.0265 1.91484 11.5961Z" fill="url(#paint0_linear_4014_1620)"/>
<path fill-rule="evenodd" clip-rule="evenodd" d="M1.91484 11.5961C8.46454 8.75163 12.8248 6.86157 15.0142 5.94461C21.2458 3.34345 22.5557 2.89432 23.3979 2.87561C23.585 2.87561 23.9967 2.91304 24.2774 3.1376C24.5019 3.32473 24.5581 3.56801 24.5955 3.75514C24.6329 3.94228 24.6704 4.33526 24.6329 4.63467C24.2961 8.19022 22.8364 16.8171 22.0879 20.7844C21.7698 22.4686 21.1522 23.03 20.5534 23.0861C19.2435 23.1984 18.2517 22.2253 16.9979 21.4019C15.0142 20.1107 13.9101 19.306 11.9827 18.0335C9.75577 16.5738 11.1967 15.7692 12.4692 14.4592C12.8061 14.1224 18.5511 8.88262 18.6634 8.41478C18.6821 8.35864 18.6821 8.13408 18.5511 8.0218C18.4201 7.90952 18.2329 7.94695 18.0832 7.98437C17.8774 8.0218 14.7335 10.1177 8.61425 14.2534C7.716 14.8709 6.91133 15.1703 6.1815 15.1516C5.37683 15.1329 3.84233 14.7025 2.68209 14.3282C1.27859 13.8791 0.155782 13.6358 0.249349 12.8499C0.305489 12.4382 0.866892 12.0265 1.91484 11.5961Z" fill="url(#paint1_linear_4014_1620)"/>
<defs>
<linearGradient id="paint0_linear_4014_1620" x1="13.1121" y1="3.83482" x2="18.1739" y2="23.7081" gradientUnits="userSpaceOnUse">
<stop stop-color="#BFADB9"/>
<stop offset="0.604224" stop-color="white"/>
<stop offset="1" stop-color="#BFADB9"/>
</linearGradient>
<linearGradient id="paint1_linear_4014_1620" x1="12.4462" y1="2.87561" x2="12.4462" y2="23.095" gradientUnits="userSpaceOnUse">
<stop stop-color="#F1C4E2"/>
<stop offset="1" stop-color="#AF809F"/>
</linearGradient>
</defs>
</svg>
