<svg width="959" height="282" viewBox="0 0 959 282" fill="none" xmlns="http://www.w3.org/2000/svg">
  <path d="M4.24558 20.7522C2.67432 25.2426 2.67432 30.8284 2.67432 42V89.2512C2.67432 94.241 2.67432 96.7359 3.23603 98.3403C3.93384 100.334 4.11214 100.617 5.60598 102.11C6.80847 103.311 10.5883 105.129 18.148 108.764C30.1433 114.533 38.4231 126.8 38.4231 141C38.4231 155.2 30.1433 167.467 18.148 173.236C10.5881 176.871 6.80844 178.689 5.60598 179.89C4.11214 181.383 3.93384 181.667 3.23603 183.66C2.67432 185.264 2.67432 187.759 2.67432 192.749V240C2.67432 251.172 2.67432 256.757 4.24558 261.248C7.05992 269.291 13.3836 275.614 21.4265 278.429C25.9169 280 31.5027 280 42.6743 280H916.674C927.846 280 933.432 280 937.922 278.429C945.965 275.614 952.289 269.291 955.103 261.248C956.674 256.757 956.674 251.172 956.674 240V192.749C956.674 187.759 956.674 185.264 956.113 183.66C955.415 181.667 955.237 181.383 953.743 179.89C952.54 178.689 948.76 176.871 941.201 173.236C929.205 167.467 920.926 155.2 920.926 141C920.926 126.8 929.205 114.533 941.201 108.764C948.76 105.129 952.54 103.311 953.743 102.11C955.237 100.617 955.415 100.334 956.113 98.3403C956.674 96.7359 956.674 94.241 956.674 89.2512V42C956.674 30.8284 956.674 25.2426 955.103 20.7522C952.289 12.7093 945.965 6.3856 937.922 3.57127C933.432 2 927.846 2 916.674 2H42.6743C31.5027 2 25.9169 2 21.4265 3.57127C13.3836 6.3856 7.05992 12.7093 4.24558 20.7522Z" fill="#F0F0F0" />

  <image class="w-[100px]" href="https://images6.alphacoders.com/792/792975.jpg" x="0" y="0" width="959" height="282" clip-path="url(#clip-path)" />

  <defs>
    <clipPath id="clip-path">
      <path d="M4.24558 20.7522C2.67432 25.2426 2.67432 30.8284 2.67432 42V89.2512C2.67432 94.241 2.67432 96.7359 3.23603 98.3403C3.93384 100.334 4.11214 100.617 5.60598 102.11C6.80847 103.311 10.5883 105.129 18.148 108.764C30.1433 114.533 38.4231 126.8 38.4231 141C38.4231 155.2 30.1433 167.467 18.148 173.236C10.5881 176.871 6.80844 178.689 5.60598 179.89C4.11214 181.383 3.93384 181.667 3.23603 183.66C2.67432 185.264 2.67432 187.759 2.67432 192.749V240C2.67432 251.172 2.67432 256.757 4.24558 261.248C7.05992 269.291 13.3836 275.614 21.4265 278.429C25.9169 280 31.5027 280 42.6743 280H916.674C927.846 280 933.432 280 937.922 278.429C945.965 275.614 952.289 269.291 955.103 261.248C956.674 256.757 956.674 251.172 956.674 240V192.749C956.674 187.759 956.674 185.264 956.113 183.66C955.415 181.667 955.237 181.383 953.743 179.89C952.54 178.689 948.76 176.871 941.201 173.236C929.205 167.467 920.926 155.2 920.926 141C920.926 126.8 929.205 114.533 941.201 108.764C948.76 105.129 952.54 103.311 953.743 102.11C955.237 100.617 955.415 100.334 956.113 98.3403C956.674 96.7359 956.674 94.241 956.674 89.2512V42C956.674 30.8284 956.674 25.2426 955.103 20.7522C952.289 12.7093 945.965 6.3856 937.922 3.57127C933.432 2 927.846 2 916.674 2H42.6743C31.5027 2 25.9169 2 21.4265 3.57127C13.3836 6.3856 7.05992 12.7093 4.24558 20.7522Z" />
    </clipPath>
  </defs>
</svg>
